<svg version="1.1" id="Layer_1" xmlns="http://www.w3.org/2000/svg" xmlns:xlink="http://www.w3.org/1999/xlink" x="0px" y="0px"
	 width="100%" viewBox="0 0 2560 2560" enable-background="new 0 0 2560 2560" xml:space="preserve">
<path fill="#FFFFFF" opacity="1.000000" stroke="none" 
	d="
M1597.918335,1081.671387 
	C1597.042969,1081.267456 1596.167725,1080.863770 1594.217529,1080.090332 
	C1592.067383,1079.609375 1590.992065,1079.498047 1589.916748,1079.386719 
	C1589.072998,1078.959229 1588.229370,1078.531738 1586.259521,1077.617310 
	C1581.418457,1075.466797 1577.703491,1073.803223 1573.988403,1072.139526 
	C1573.988403,1072.139526 1573.657104,1071.518311 1573.021606,1071.020874 
	C1570.909546,1069.867310 1569.432861,1069.211304 1567.956299,1068.555176 
	C1567.956299,1068.555176 1567.591309,1067.758545 1566.897705,1067.133301 
	C1564.124878,1065.035767 1562.045654,1063.563599 1559.966431,1062.091309 
	C1557.008545,1058.906006 1554.050659,1055.720825 1550.362061,1051.648193 
	C1547.168213,1048.315552 1544.705078,1045.870239 1542.241943,1043.424927 
	C1539.220581,1039.796509 1536.199219,1036.168091 1532.470215,1031.618408 
	C1529.280640,1028.205566 1526.798828,1025.713989 1524.317017,1023.222290 
	C1521.951050,1020.286987 1519.585083,1017.351624 1516.495728,1013.598328 
	C1514.563843,1011.734680 1513.355347,1010.689087 1512.146973,1009.643494 
	C1503.810669,999.945496 1495.474487,990.247559 1486.390869,979.652283 
	C1483.167236,976.333801 1480.691040,973.912598 1478.214722,971.491394 
	C1475.231812,967.817139 1472.248779,964.142883 1468.545532,959.583801 
	C1465.949585,956.974609 1464.073853,955.250183 1462.197998,953.525818 
	C1456.939331,948.944336 1451.680664,944.362854 1445.424561,939.099121 
	C1441.595093,937.271179 1438.763184,936.125488 1435.931274,934.979858 
	C1435.084473,934.614014 1434.237793,934.248169 1432.318359,933.515686 
	C1430.146851,933.000671 1429.047974,932.852295 1427.949097,932.703857 
	C1427.086548,932.394958 1426.224121,932.086060 1423.946655,931.525574 
	C1409.467773,929.123108 1396.523193,928.478882 1384.091797,934.317444 
	C1382.421265,934.876343 1380.750610,935.435242 1377.922852,936.389038 
	C1374.276855,938.426453 1371.788208,940.068970 1369.299561,941.711426 
	C1369.299561,941.711426 1368.442505,941.674988 1367.626709,942.069519 
	C1365.672607,943.558167 1364.534180,944.652283 1363.395874,945.746460 
	C1357.628662,951.129761 1351.740234,956.390442 1346.128662,961.931519 
	C1340.703247,967.288635 1335.562988,972.934570 1329.482666,979.227905 
	C1327.715820,981.309753 1326.763794,982.617249 1325.811768,983.924744 
	C1313.955933,996.051819 1302.100098,1008.178833 1289.382812,1021.125488 
	C1284.976807,1025.948730 1281.432251,1029.952271 1277.887817,1033.955933 
	C1266.829346,1045.010376 1255.770996,1056.064697 1243.761719,1067.822632 
	C1240.791138,1070.178467 1238.771606,1071.830933 1236.751953,1073.483276 
	C1230.217896,1076.104126 1223.683960,1078.724854 1215.699951,1081.771729 
	C1207.302490,1082.732300 1200.355103,1083.733154 1193.407593,1083.734619 
	C823.223328,1083.810181 453.039093,1083.799072 82.854874,1083.830933 
	C78.558121,1083.831299 74.261406,1084.273193 69.964676,1084.509033 
	C69.632858,1084.307129 69.301041,1084.105225 68.519455,1082.819336 
	C68.049187,1077.658936 72.931892,1073.210938 66.929962,1068.757202 
	C66.809128,1064.606079 66.905815,1061.269287 67.002510,1057.932495 
	C67.286514,1056.424438 67.570518,1054.916382 68.776779,1052.588013 
	C72.768524,1049.918701 71.203224,1048.708984 68.924088,1046.778320 
	C68.862320,1043.303955 68.996643,1040.621582 69.130966,1037.939331 
	C69.394051,1037.053467 69.657127,1036.167725 70.795227,1034.533691 
	C74.501038,1032.154297 73.374084,1030.866211 71.133896,1028.857910 
	C71.132492,1025.358643 71.309593,1022.660461 71.486687,1019.962341 
	C71.716888,1019.079590 71.947105,1018.196838 72.334290,1015.936829 
	C73.777977,1005.012512 75.064713,995.465393 76.351440,985.918335 
	C76.769119,984.403687 77.186806,982.889099 77.914368,980.066772 
	C78.415688,976.480164 78.607155,974.201233 78.798630,971.922363 
	C79.169144,970.424683 79.539658,968.927002 80.218277,966.199829 
	C80.722282,963.292786 80.918182,961.615234 81.114090,959.937622 
	C81.374268,959.050171 81.634445,958.162781 82.169388,956.025940 
	C82.778755,952.504150 83.113358,950.231750 83.447945,947.959351 
	C83.710625,947.089111 83.973312,946.218872 84.519135,944.059326 
	C86.699455,933.153076 88.596634,923.536133 90.493820,913.919250 
	C90.973145,912.440796 91.452461,910.962402 92.283875,908.354858 
	C92.712158,906.125671 92.788353,905.025513 92.864548,903.925415 
	C93.175323,903.045044 93.486107,902.164612 94.109131,900.105103 
	C94.683113,897.265015 94.944832,895.603943 95.206558,893.942932 
	C95.492226,893.071716 95.777893,892.200500 96.355370,890.247437 
	C96.801987,888.089417 96.956787,887.013184 97.111580,885.936951 
	C97.469200,885.087524 97.826820,884.238098 98.512077,882.125610 
	C100.726372,873.214294 102.613037,865.566162 104.499710,857.917969 
	C104.884727,857.045227 105.269730,856.172546 106.025726,854.023254 
	C109.829987,840.470825 113.263245,828.195007 116.696495,815.919128 
	C117.110870,815.074280 117.525246,814.229370 118.449089,812.217163 
	C122.175110,800.672241 125.391670,790.294678 128.608215,779.917175 
	C128.910995,779.598755 129.213760,779.280396 130.649307,778.263550 
	C136.775940,777.484741 141.769775,777.334290 146.763626,777.334167 
	C537.232483,777.323303 927.701416,777.326904 1318.170288,777.303284 
	C1325.495850,777.302856 1332.824829,777.073975 1340.144653,776.768127 
	C1342.057983,776.688171 1343.942505,775.916687 1345.840210,775.462769 
	C1347.401123,775.419434 1348.961914,775.376099 1351.973145,775.174072 
	C1365.384766,772.571228 1377.182373,769.661743 1387.656006,762.984863 
	C1390.816284,761.552612 1393.976562,760.120300 1398.181885,758.143188 
	C1400.431641,756.512329 1401.636108,755.426208 1402.840698,754.340088 
	C1402.840698,754.340149 1403.628418,754.368164 1404.429688,754.014282 
	C1406.418091,752.547485 1407.605225,751.434570 1408.792480,750.321655 
	C1410.377563,749.245850 1411.962769,748.170044 1414.405273,746.484375 
	C1416.358398,744.659912 1417.454468,743.445496 1418.550537,742.231079 
	C1420.334106,740.729187 1422.117554,739.227295 1424.719116,736.950073 
	C1428.962524,732.094238 1432.387939,728.013733 1435.813354,723.933228 
	C1439.123291,720.476135 1442.433350,717.018982 1446.530029,712.769104 
	C1448.182373,710.640320 1449.048096,709.304321 1449.913574,707.968262 
	C1453.187988,704.498474 1456.462402,701.028687 1460.536987,696.789307 
	C1462.231079,694.682129 1463.124878,693.344666 1464.018799,692.007141 
	C1467.285767,688.553284 1470.552734,685.099426 1474.589844,680.848511 
	C1476.252197,678.705688 1477.144409,677.359863 1478.036621,676.014038 
	C1480.793579,673.199890 1483.550537,670.385803 1487.244873,666.583435 
	C1489.448120,663.735413 1490.714355,661.875610 1491.623169,660.540771 
	C1496.540283,660.771484 1500.832886,661.132019 1505.126953,661.149536 
	C1543.754639,661.307068 1582.382568,661.404419 1621.714600,661.660889 
	C1622.893188,661.867493 1623.367554,661.932617 1624.267090,662.509338 
	C1627.725708,666.154480 1630.759277,669.288147 1633.792847,672.421875 
	C1637.436646,676.765259 1641.080566,681.108704 1645.410645,686.367798 
	C1647.325684,688.335632 1648.554688,689.387756 1649.783691,690.439880 
	C1653.411255,694.804626 1657.038818,699.169434 1661.394531,704.402100 
	C1663.362061,706.308838 1664.601196,707.347595 1665.840576,708.386353 
	C1668.822876,712.087341 1671.805176,715.788391 1675.529663,720.390503 
	C1678.758301,723.740845 1681.244751,726.190125 1683.731323,728.639343 
	C1686.065186,731.609009 1688.399170,734.578735 1691.456543,738.440552 
	C1694.694458,741.776245 1697.208862,744.219849 1699.723389,746.663452 
	C1700.579590,747.778809 1701.435913,748.894104 1703.018066,750.785400 
	C1707.168823,754.305420 1710.593750,757.049438 1714.018555,759.793457 
	C1714.018555,759.793457 1714.266968,760.423889 1714.911377,760.984741 
	C1717.085571,762.207153 1718.615479,762.868652 1720.145386,763.530151 
	C1721.062622,764.250427 1721.979736,764.970642 1723.926270,766.208008 
	C1733.330078,769.399780 1741.704346,772.074280 1750.078735,774.748779 
	C1750.969604,775.067932 1751.860596,775.386963 1754.127319,776.006775 
	C1762.144409,776.646362 1768.785522,777.280090 1775.426880,777.281555 
	C2005.573608,777.332703 2235.720459,777.324158 2465.867188,777.324219 
	C2470.083740,777.324219 2474.300049,777.324219 2478.412109,777.324219 
	C2479.505859,780.475464 2480.131348,782.336304 2480.795898,784.183167 
	C2484.605225,794.766968 2488.423340,805.347595 2492.238770,815.929199 
	C2492.293945,816.871582 2492.349365,817.813904 2492.671387,819.879761 
	C2493.506836,821.940430 2494.074951,822.877686 2494.643311,823.814880 
	C2494.644287,907.014709 2494.678467,990.214661 2494.531494,1073.414185 
	C2494.525391,1076.932983 2496.828857,1081.570068 2489.971924,1083.896606 
	C2484.246826,1083.862915 2480.249512,1083.805420 2476.251953,1083.805298 
	C2201.717529,1083.801147 1927.183228,1083.841797 1652.648804,1083.709961 
	C1634.405029,1083.701172 1616.161865,1082.381348 1597.918335,1081.671387 
z"/>
<path fill="#FEFEFE" opacity="1.000000" stroke="none" 
	d="
M1186.100952,1729.341431 
	C1174.828369,1728.670166 1164.399414,1728.835571 1154.277100,1727.154297 
	C1133.024536,1723.624268 1116.261963,1712.056152 1102.156372,1696.063843 
	C1074.380615,1664.573242 1046.368164,1633.291382 1018.513000,1601.870728 
	C1007.632690,1589.597900 995.031738,1580.122314 978.534241,1577.036743 
	C951.134216,1571.912354 926.938843,1577.802612 907.215088,1598.390503 
	C875.861389,1631.117676 844.561584,1663.896606 813.180420,1696.597412 
	C807.649414,1702.360962 802.200684,1708.294556 796.071838,1713.375122 
	C782.404785,1724.704468 766.057373,1728.746582 748.660278,1729.306763 
	C745.330566,1729.414062 741.994873,1729.340576 738.661926,1729.340576 
	C558.015320,1729.341675 377.368683,1729.341553 196.722046,1729.341431 
	C194.388977,1729.341431 192.041199,1729.171265 189.726013,1729.374146 
	C185.499161,1729.744385 183.023392,1728.052124 181.270355,1724.091919 
	C176.283478,1712.825684 170.705612,1701.820190 165.763519,1690.535522 
	C128.212265,1604.790894 100.407143,1516.007446 82.972649,1424.009277 
	C82.790443,1423.047852 82.828354,1422.044434 82.680534,1419.801880 
	C87.004532,1419.712769 91.192711,1419.551392 95.380905,1419.551025 
	C244.697678,1419.538208 394.014465,1419.540649 543.331238,1419.540405 
	C656.651978,1419.540161 769.972961,1419.434082 883.293396,1419.610718 
	C912.489807,1419.656250 939.478271,1412.603516 963.346558,1395.764038 
	C972.517883,1389.293579 981.001953,1381.479736 988.550171,1373.146729 
	C1012.263184,1346.968018 1035.528442,1320.378296 1058.672974,1293.692627 
	C1071.055420,1279.415405 1085.155518,1268.496216 1104.521973,1265.888672 
	C1129.839966,1262.479980 1151.286499,1269.776733 1168.381348,1288.918579 
	C1185.918091,1308.555176 1203.287476,1328.341187 1220.722534,1348.068359 
	C1232.419067,1361.302734 1244.012329,1374.629761 1255.812622,1387.770996 
	C1274.405640,1408.477051 1297.358276,1418.868286 1325.541870,1418.857178 
	C1710.499146,1418.705322 2095.456543,1418.755127 2480.413818,1418.755127 
	C2484.691895,1418.755127 2488.969971,1418.755127 2493.960693,1418.755127 
	C2494.232422,1422.442871 2494.625488,1425.316528 2494.628418,1428.190552 
	C2494.668945,1466.852905 2494.687988,1505.515503 2494.599365,1544.177612 
	C2494.591064,1547.792847 2494.354492,1551.569580 2493.316406,1554.996216 
	C2475.613770,1613.426025 2453.082520,1669.985718 2427.031494,1725.168335 
	C2426.472412,1726.352539 2425.656494,1727.415894 2424.459473,1729.341553 
	C2012.221680,1729.341553 1599.652588,1729.341553 1186.100952,1729.341431 
z"/>
<path fill="#FDFDFD" opacity="1.000000" stroke="none" 
	d="
M1623.842041,661.997803 
	C1623.367554,661.932617 1622.893188,661.867493 1621.573730,661.039124 
	C1615.446899,654.016357 1610.722900,647.159851 1604.780273,641.607544 
	C1585.620239,623.705627 1562.812134,619.532654 1537.905762,625.902710 
	C1517.385010,631.151062 1503.948853,645.704285 1493.030762,660.950073 
	C1099.133301,660.950073 706.098328,660.950073 312.287354,660.950073 
	C313.117615,657.752991 313.600708,655.892761 314.083832,654.032471 
	C315.398193,652.596741 316.712555,651.160950 318.705750,648.912476 
	C320.166901,646.702515 320.949127,645.305237 321.731384,643.907959 
	C326.969513,637.531372 332.207672,631.154846 338.225098,623.918335 
	C340.640747,620.702881 342.277191,618.347412 343.913635,615.991943 
	C345.923279,613.923767 347.932922,611.855530 350.687439,608.973206 
	C352.281860,606.770325 353.131439,605.381592 353.981018,603.992920 
	C355.971802,601.953430 357.962585,599.913879 360.734985,597.058044 
	C363.016937,594.163330 364.517273,592.084961 366.017578,590.006592 
	C368.627533,587.229065 371.237518,584.451538 374.613098,580.874023 
	C376.269928,578.722717 377.161102,577.371399 378.052307,576.020081 
	C384.587402,569.166199 391.122528,562.312256 398.466309,554.686157 
	C400.194214,552.613403 401.113403,551.312988 402.032593,550.012512 
	C411.861786,540.421021 421.690918,530.829529 432.405334,520.451050 
	C437.651825,515.161316 442.013123,510.658539 446.374390,506.155762 
	C453.437164,499.892883 460.499908,493.630005 468.439911,486.607330 
	C471.042450,483.967377 472.767731,482.087219 474.493011,480.207062 
	C478.163300,477.206573 481.833588,474.206116 486.391663,470.497009 
	C489.035522,467.935852 490.791595,466.083344 492.547668,464.230835 
	C494.845154,462.474884 497.142639,460.718903 500.340424,458.274658 
	C504.501984,454.527161 507.763214,451.467957 511.024475,448.408783 
	C511.904022,447.919373 512.783569,447.429932 514.450439,446.370483 
	C516.377502,444.624390 517.517151,443.448273 518.656738,442.272156 
	C520.263306,441.182190 521.869934,440.092255 524.352112,438.374390 
	C527.349670,435.784637 529.471558,433.822815 531.593445,431.860962 
	C534.816223,429.559509 538.039062,427.258026 542.235962,424.326508 
	C545.396301,421.758759 547.582581,419.821045 549.768799,417.883331 
	C549.768799,417.883331 549.918274,417.952271 550.537720,417.829895 
	C552.318176,416.560669 553.479248,415.413788 554.640259,414.266907 
	C555.583557,413.758423 556.526794,413.249939 558.347351,412.204834 
	C560.379822,410.541107 561.535034,409.414001 562.690308,408.286865 
	C563.642090,407.809845 564.593872,407.332794 566.387024,406.305786 
	C568.468811,404.627991 569.709229,403.500153 570.949646,402.372345 
	C570.949646,402.372345 571.724121,402.325134 572.449402,401.899719 
	C574.321472,400.401733 575.468262,399.329193 576.615051,398.256622 
	C577.577576,397.811432 578.540039,397.366241 580.384094,396.366241 
	C582.517212,394.672729 583.768860,393.533997 585.020447,392.395264 
	C585.020447,392.395264 585.754395,392.361633 586.474365,391.976776 
	C588.320435,390.474335 589.446533,389.356750 590.572632,388.239197 
	C593.483704,386.476654 596.394836,384.714142 600.275513,382.365479 
	C602.523560,380.660065 603.802124,379.540802 605.080688,378.421509 
	C605.080627,378.421509 605.764954,378.395721 606.508301,378.037231 
	C608.478333,376.576019 609.705017,375.473297 610.931702,374.370575 
	C610.931702,374.370575 611.685059,374.395538 612.460693,374.002563 
	C614.467224,372.528900 615.698059,371.448273 616.928955,370.367615 
	C616.928955,370.367615 617.683411,370.357178 618.449707,369.976379 
	C620.407288,368.503265 621.598572,367.410950 622.789917,366.318665 
	C624.955872,365.142334 627.121826,363.965973 630.285889,362.255005 
	C632.592346,360.644470 633.900574,359.568512 635.208862,358.492523 
	C636.580322,357.836365 637.951843,357.180176 640.277100,356.036194 
	C642.508789,354.503540 643.786621,353.458710 645.064392,352.413879 
	C645.064392,352.413849 645.751221,352.406464 646.511902,352.044739 
	C648.570251,350.610718 649.867981,349.538391 651.165710,348.466125 
	C651.165710,348.466125 651.732483,348.495422 652.553467,348.207214 
	C655.975403,346.101166 658.576294,344.283325 661.177185,342.465515 
	C662.554565,341.854279 663.931946,341.243011 666.265015,340.114075 
	C669.715942,337.828552 672.211182,336.060699 674.706360,334.292847 
	C674.706360,334.292847 675.532104,334.343781 676.370605,333.990479 
	C678.791809,332.419159 680.374451,331.201141 681.957153,329.983093 
	C684.360535,328.843536 686.763977,327.703949 690.234070,326.004333 
	C693.896301,323.772034 696.491882,322.099792 699.087402,320.427551 
	C700.492126,319.873535 701.896912,319.319489 704.281982,318.291565 
	C706.683411,316.805664 708.104553,315.793640 709.525696,314.781616 
	C711.416992,313.919769 713.308228,313.057892 716.187073,311.699646 
	C718.477295,310.277527 719.779907,309.351776 721.082520,308.425995 
	C727.724426,305.168091 734.366333,301.910217 742.198303,298.113800 
	C748.801147,294.694977 754.213928,291.814697 759.626709,288.934448 
	C766.019470,286.026917 772.412170,283.119385 780.052673,279.782776 
	C784.037109,277.823303 786.773743,276.292938 789.510376,274.762512 
	C790.145874,274.676697 790.781433,274.590912 792.369202,274.126770 
	C795.214111,272.626312 797.106750,271.504211 798.999451,270.382080 
	C799.721436,270.293762 800.443420,270.205414 802.229614,269.698364 
	C806.062073,267.823425 808.830383,266.367157 811.598694,264.910889 
	C812.748169,264.564545 813.897705,264.218231 816.193726,263.518097 
	C826.745850,259.049927 836.151428,254.935532 845.557007,250.821136 
	C846.729614,250.536285 847.902222,250.251450 850.231567,249.593262 
	C870.286316,242.418991 889.192017,235.639420 908.077271,228.803284 
	C913.285950,226.917862 918.433472,224.863815 923.609070,222.887115 
	C924.770142,222.769150 925.931274,222.651184 928.292480,222.204529 
	C934.987427,219.891998 940.482178,217.908127 945.976929,215.924286 
	C946.891968,215.891037 947.806946,215.857788 949.891479,215.629944 
	C952.014893,214.871399 952.968811,214.307434 953.922729,213.743439 
	C954.856506,213.707977 955.790222,213.672531 957.868896,213.433716 
	C959.970154,212.688782 960.926453,212.147217 961.882751,211.605652 
	C962.832031,211.544861 963.781311,211.484055 966.050537,211.160187 
	C971.475708,209.764481 975.587402,208.654953 979.684753,207.494522 
	C989.075439,204.835007 998.459045,202.150711 1007.845520,199.476501 
	C1008.802124,199.447739 1009.758728,199.418976 1012.061646,199.130402 
	C1022.922668,196.526154 1032.437256,194.181671 1041.951904,191.837204 
	C1042.875977,191.827545 1043.800171,191.817856 1045.877686,191.610870 
	C1048.007080,190.897461 1048.983276,190.381363 1049.959351,189.865250 
	C1051.484253,189.804031 1053.009033,189.742828 1055.858643,189.504837 
	C1058.740479,188.721146 1060.297852,188.114258 1061.855103,187.507370 
	C1062.791626,187.533997 1063.728027,187.560608 1065.913574,187.449554 
	C1068.728394,186.718689 1070.294312,186.125488 1071.860107,185.532318 
	C1073.422241,185.415543 1074.984375,185.298752 1077.987305,184.961853 
	C1091.588379,182.390610 1103.748901,180.039459 1115.909302,177.688309 
	C1116.828979,177.746338 1117.748657,177.804367 1120.038574,177.733231 
	C1124.231689,176.931976 1127.054565,176.259872 1129.877563,175.587784 
	C1132.056519,175.540253 1134.235596,175.492722 1137.828613,175.344971 
	C1141.444824,174.661957 1143.646729,174.079163 1145.848755,173.496368 
	C1148.036499,173.432907 1150.224121,173.369461 1153.986328,173.181915 
	C1171.032593,171.345322 1186.504150,169.632843 1201.975830,167.920349 
	C1203.494263,167.996140 1205.012695,168.071930 1208.146484,168.110840 
	C1217.827393,167.336060 1225.892700,166.598160 1233.958130,165.860245 
	C1239.376587,165.818314 1244.795166,165.776382 1251.992310,165.705322 
	C1268.479858,165.002670 1283.188599,164.329163 1297.897461,163.655655 
	C1301.398071,163.809875 1304.898682,163.964096 1309.979736,164.207367 
	C1327.057617,164.616318 1342.555054,164.936249 1358.052368,165.256195 
	C1362.798218,165.571259 1367.544189,165.886337 1373.911865,166.310226 
	C1383.035522,166.763336 1390.537354,167.107635 1398.039307,167.451935 
	C1400.172729,167.717133 1402.306152,167.982346 1405.975098,168.358658 
	C1423.034790,169.811295 1438.558716,171.152817 1454.082764,172.494339 
	C1456.234619,172.913940 1458.386597,173.333527 1461.933350,174.012177 
	C1466.241577,174.518509 1469.154663,174.765823 1472.067871,175.013123 
	C1473.583130,175.295227 1475.098389,175.577332 1477.979248,176.084229 
	C1482.249390,176.598038 1485.153931,176.887070 1488.058472,177.176102 
	C1489.549561,177.490097 1491.040527,177.804077 1493.854736,178.386795 
	C1497.464722,178.930588 1499.751587,179.205658 1502.038574,179.480713 
	C1502.913940,179.731766 1503.789185,179.982803 1505.998779,180.445831 
	C1515.583252,181.965286 1523.833252,183.272736 1532.083374,184.580170 
	C1532.966675,184.937866 1533.849854,185.295578 1535.910400,185.974030 
	C1538.751831,186.443787 1540.416138,186.592850 1542.080444,186.741913 
	C1542.968750,187.055344 1543.857056,187.368759 1545.992188,187.981949 
	C1549.510986,188.601578 1551.782959,188.921432 1554.054810,189.241287 
	C1554.936279,189.499115 1555.817871,189.756943 1557.865234,190.318420 
	C1560.702637,190.876724 1562.373901,191.131363 1564.045288,191.386002 
	C1564.910278,191.667740 1565.775391,191.949478 1567.917236,192.534149 
	C1575.489136,194.010147 1581.784058,195.183212 1588.079102,196.356293 
	C1588.963623,196.737656 1589.848267,197.119034 1591.803223,197.851715 
	C1593.942871,198.277039 1595.012329,198.351059 1596.081665,198.425064 
	C1596.961792,198.805710 1597.841919,199.186371 1599.907104,199.910400 
	C1602.750244,200.525726 1604.408203,200.797668 1606.066284,201.069595 
	C1606.934204,201.382828 1607.802246,201.696060 1609.717285,202.359344 
	C1611.863159,202.854233 1612.962158,202.999084 1614.061035,203.143921 
	C1614.925171,203.451172 1615.789307,203.758453 1617.908691,204.430908 
	C1626.803223,206.673004 1634.442261,208.549911 1642.081421,210.426849 
	C1642.949951,210.831161 1643.818359,211.235474 1645.762451,212.009186 
	C1647.919067,212.486252 1649.000122,212.593933 1650.081055,212.701630 
	C1650.945435,213.071335 1651.809937,213.441010 1653.741699,214.165680 
	C1655.894897,214.693283 1656.980957,214.865906 1658.066895,215.038544 
	C1658.930908,215.355621 1659.795044,215.672668 1661.867920,216.405396 
	C1672.752686,219.891525 1682.426025,222.970184 1692.105347,226.030075 
	C1701.426636,228.976776 1710.754150,231.904053 1720.078857,234.839874 
	C1722.259033,235.826157 1724.439209,236.812454 1727.786621,238.320862 
	C1738.661499,242.191376 1748.368896,245.539749 1758.076416,248.888123 
	C1759.147217,249.509109 1760.217896,250.130066 1762.429688,251.232513 
	C1776.397461,256.916229 1789.224487,262.118469 1802.051392,267.320740 
	C1802.650635,267.701202 1803.249756,268.081635 1804.793945,269.015137 
	C1809.172119,270.881561 1812.605225,272.194946 1816.038452,273.508331 
	C1816.542114,273.932678 1817.045898,274.357056 1818.475586,275.260986 
	C1822.288208,276.885223 1825.174805,278.029968 1828.061279,279.174683 
	C1828.683716,279.574890 1829.306152,279.975098 1830.871826,280.963806 
	C1835.219238,282.919281 1838.623413,284.286316 1842.027466,285.653320 
	C1843.760864,286.701965 1845.494141,287.750610 1848.301392,289.341095 
	C1854.931519,292.401215 1860.487671,294.919464 1866.043945,297.437714 
	C1869.060547,299.225891 1872.077271,301.014069 1876.150391,303.381226 
	C1878.811768,304.549255 1880.416748,305.138306 1882.021729,305.727356 
	C1884.573730,307.273987 1887.125854,308.820648 1890.615967,310.933838 
	C1893.055054,312.081757 1894.556030,312.663177 1896.057129,313.244629 
	C1896.539551,313.717133 1897.021973,314.189606 1898.398438,315.215820 
	C1900.871460,316.386963 1902.450439,317.004333 1904.029541,317.621704 
	C1906.562866,319.206848 1909.096191,320.791992 1912.562134,322.960480 
	C1915.012695,324.153168 1916.530762,324.762512 1918.048706,325.371857 
	C1920.574341,326.987915 1923.100098,328.603973 1926.625854,330.918945 
	C1932.467041,334.251495 1937.308228,336.885162 1942.149292,339.518860 
	C1943.366333,340.443756 1944.583496,341.368652 1946.679077,342.904175 
	C1949.050781,344.185730 1950.543945,344.856628 1952.037231,345.527588 
	C1955.296509,347.730011 1958.555908,349.932465 1962.792847,352.829834 
	C1966.516479,354.984650 1969.262329,356.444550 1972.008301,357.904480 
	C1972.008301,357.904480 1972.281372,358.469238 1972.883423,359.023132 
	C1974.998535,360.282806 1976.511475,360.988586 1978.024536,361.694397 
	C1978.024536,361.694397 1978.377197,362.394135 1979.041992,362.920898 
	C1981.150879,364.133362 1982.594971,364.819061 1984.039062,365.504761 
	C1984.039062,365.504730 1984.414917,366.277100 1985.092285,366.850403 
	C1987.192017,368.129791 1988.614258,368.835876 1990.036621,369.541931 
	C1990.036621,369.541931 1990.449219,370.280823 1991.097900,370.860626 
	C1993.175049,372.160980 1994.603516,372.881531 1996.031860,373.602112 
	C1996.031860,373.602112 1996.394897,374.336853 1997.050781,374.899719 
	C1999.146729,376.198669 2000.586914,376.934753 2002.026978,377.670807 
	C2002.026978,377.670807 2002.237061,378.361481 2002.895996,378.947571 
	C2005.044189,380.263367 2006.533325,380.993103 2008.022583,381.722870 
	C2008.022583,381.722870 2008.252930,382.389832 2008.880859,382.981934 
	C2011.011353,384.316162 2012.514038,385.058289 2014.016602,385.800415 
	C2014.789795,386.568634 2015.562988,387.336884 2017.116699,388.731506 
	C2019.277344,390.083466 2020.657471,390.809082 2022.037476,391.534698 
	C2022.037476,391.534698 2022.350220,392.299103 2023.014160,392.895630 
	C2025.124268,394.261719 2026.570557,395.031250 2028.016724,395.800781 
	C2028.016724,395.800781 2028.254028,396.421661 2028.866211,397.015381 
	C2030.985474,398.406433 2032.492554,399.203735 2033.999756,400.001038 
	C2034.700806,400.743195 2035.401855,401.485352 2036.893311,402.864716 
	C2039.149902,404.278198 2040.616211,405.054474 2042.082520,405.830750 
	C2042.082520,405.830750 2042.048218,405.984741 2042.343384,406.535248 
	C2045.100220,408.631653 2047.561890,410.177521 2050.023682,411.723389 
	C2050.787354,412.509888 2051.550781,413.296387 2053.086182,414.745483 
	C2055.267090,416.189301 2056.676025,416.970490 2058.085205,417.751740 
	C2058.820068,418.532471 2059.555176,419.313141 2061.058594,420.750061 
	C2063.226318,422.170074 2064.625732,422.933899 2066.025146,423.697693 
	C2066.794434,424.488068 2067.563721,425.278503 2069.112549,426.733459 
	C2071.276367,428.224335 2072.660645,429.050629 2074.044678,429.876892 
	C2074.729248,430.643433 2075.413574,431.409973 2076.863770,432.872894 
	C2079.767578,435.005859 2081.905762,436.442413 2084.043945,437.879028 
	C2088.727539,441.909790 2093.410889,445.940521 2098.954346,450.729401 
	C2101.874268,452.996735 2103.934570,454.505890 2105.994629,456.015076 
	C2108.009766,458.014862 2110.025146,460.014648 2112.880615,462.785980 
	C2116.491943,465.674316 2119.262939,467.791138 2122.033936,469.908020 
	C2125.421143,473.209839 2128.808350,476.511658 2133.009521,480.660400 
	C2136.561279,483.637360 2139.299561,485.767365 2142.037598,487.897339 
	C2146.761963,492.536041 2151.486328,497.174774 2157.057617,502.665344 
	C2164.614990,509.645752 2171.325439,515.774353 2178.035889,521.902954 
	C2184.267090,528.457581 2190.498047,535.012146 2197.492188,542.406799 
	C2200.166992,544.838867 2202.079346,546.430908 2203.991455,548.022888 
	C2204.302490,548.603577 2204.613770,549.184265 2205.536865,550.536865 
	C2208.031006,553.035889 2209.913086,554.763000 2211.794922,556.490112 
	C2216.789551,562.151367 2221.784424,567.812561 2227.520020,574.370789 
	C2230.089844,577.045288 2231.919189,578.822754 2233.748291,580.600159 
	C2235.486328,582.889832 2237.224609,585.179443 2239.666504,588.345703 
	C2242.972168,591.962769 2245.574463,594.703064 2248.176514,597.443359 
	C2249.084229,598.794556 2249.991943,600.145752 2251.607666,602.374939 
	C2254.918457,606.049072 2257.521240,608.845215 2260.124023,611.641357 
	C2260.430176,612.293152 2260.736328,612.944885 2261.671631,614.387451 
	C2263.488037,616.230408 2264.675293,617.282654 2265.862305,618.334961 
	C2267.550049,620.706421 2269.237793,623.077881 2271.579590,626.327637 
	C2273.426270,628.286926 2274.619629,629.367920 2275.812988,630.448975 
	C2276.905762,632.107422 2277.998535,633.765930 2279.707764,636.292725 
	C2281.485107,638.260193 2282.646484,639.359375 2283.807861,640.458435 
	C2284.884033,642.129883 2285.959961,643.801392 2287.650879,646.331665 
	C2289.436035,648.305603 2290.606445,649.420715 2291.776855,650.535889 
	C2292.870605,652.171021 2293.964355,653.806152 2295.651367,656.655334 
	C2294.282227,663.588867 2289.444580,660.715942 2286.139404,660.726318 
	C2219.249512,660.935547 2152.358887,660.826416 2085.468262,660.923340 
	C2068.851562,660.947449 2052.261230,661.092041 2035.917236,657.450745 
	C2035.057861,657.056519 2034.198364,656.662292 2032.293213,655.833984 
	C2030.147949,655.159790 2029.048584,654.919678 2027.949097,654.679565 
	C2010.500122,647.299622 1997.012939,634.950989 1984.400879,619.645630 
	C1980.524536,615.596619 1977.403320,612.459595 1974.282227,609.322510 
	C1971.948242,606.358337 1969.614136,603.394226 1966.559692,599.558350 
	C1963.973633,596.931763 1962.107788,595.176941 1960.242065,593.422119 
	C1957.845703,590.467102 1955.449341,587.512024 1952.359131,583.653625 
	C1949.189941,580.309875 1946.714722,577.869568 1944.239380,575.429321 
	C1941.852417,572.454773 1939.465576,569.480225 1936.365723,565.629395 
	C1933.184448,562.304993 1930.716187,559.856812 1928.248047,557.408691 
	C1925.233398,553.778564 1922.218750,550.148376 1918.490723,545.619141 
	C1915.121582,542.017456 1912.465942,539.314819 1909.810303,536.612183 
	C1905.180176,531.748657 1900.550049,526.885071 1895.063721,521.303589 
	C1892.794189,519.857300 1891.380859,519.128784 1889.967651,518.400269 
	C1889.967651,518.400269 1889.707520,517.664917 1888.940918,517.044434 
	C1872.510864,507.339935 1855.725220,505.112274 1838.066040,508.222473 
	C1837.137451,508.155823 1836.208740,508.089203 1834.045410,508.205200 
	C1831.234375,509.020081 1829.658203,509.652313 1828.082031,510.284607 
	C1826.425293,510.844238 1824.768433,511.403870 1821.920654,512.367188 
	C1818.103271,514.363281 1815.476807,515.955688 1812.850342,517.548035 
	C1810.770630,518.701111 1808.690918,519.854126 1805.590820,521.671997 
	C1802.664062,523.982910 1800.757446,525.629089 1798.631714,527.464539 
	C1796.435303,526.088684 1794.331909,524.771301 1792.228638,523.453857 
	C1791.379150,522.317505 1790.529663,521.181213 1789.011841,519.261597 
	C1786.168579,516.514709 1783.993652,514.551086 1781.818726,512.587402 
	C1773.644775,503.877716 1765.470825,495.167999 1756.524414,485.563171 
	C1749.911987,478.927216 1744.072021,473.186340 1738.232056,467.445496 
	C1725.310425,453.772339 1712.388794,440.099182 1698.718872,425.493713 
	C1696.650146,422.742432 1695.329834,420.923492 1693.524658,418.436646 
	C1691.021240,421.067505 1689.592041,422.569336 1688.162964,424.071198 
	C1684.441895,426.561829 1680.720825,429.052460 1675.839600,432.065186 
	C1670.486572,434.531799 1666.293945,436.476349 1662.101196,438.420959 
	C1658.600586,439.274963 1655.099976,440.128937 1650.223389,441.058563 
	C1646.276855,441.715973 1643.706421,442.297791 1641.135864,442.879608 
	C1641.135864,442.879608 1641.102295,443.081787 1640.458252,443.635986 
	C1639.698730,447.839722 1639.483765,451.489258 1639.482666,455.138824 
	C1639.462402,519.345825 1639.468384,583.552795 1639.468750,647.759766 
	C1639.468750,651.653198 1639.468750,655.546570 1639.468750,659.628235 
	C1633.494873,660.534119 1628.668457,661.265991 1623.842041,661.997803 
z"/>
<path fill="#FEFEFE" opacity="1.000000" stroke="none" 
	d="
M920.319458,2371.581787 
	C768.452942,2322.458496 632.097595,2246.729248 509.756195,2145.663818 
	C469.789642,2112.647705 432.027771,2077.253418 396.090515,2037.572388 
	C405.814697,2036.538696 413.685974,2036.092651 421.418976,2034.811768 
	C453.998566,2029.415527 480.405304,2013.291748 501.950562,1988.476196 
	C525.546448,1961.298584 549.488159,1934.421021 573.297363,1907.428833 
	C592.196106,1886.003540 615.648315,1878.474731 643.540649,1884.414307 
	C658.908875,1887.686890 670.784729,1896.513428 680.980530,1907.920288 
	C699.858521,1929.041016 718.584351,1950.297607 737.448242,1971.431030 
	C748.985962,1984.356812 760.338928,1997.470459 772.354858,2009.941040 
	C789.419250,2027.650757 811.001465,2035.298950 835.228210,2036.203491 
	C839.555298,2036.365112 843.893311,2036.236572 848.226318,2036.236572 
	C1298.190063,2036.237061 1748.153687,2036.237061 2198.117432,2036.237061 
	C2202.366455,2036.237061 2206.615723,2036.236938 2212.562744,2036.236938 
	C2210.157471,2039.441284 2208.871094,2041.548096 2207.214111,2043.305786 
	C2123.627686,2131.977051 2028.650635,2206.146729 1923.055420,2266.881104 
	C1861.683716,2302.180176 1797.597778,2331.541504 1731.282227,2356.197754 
	C1656.721680,2383.919434 1579.939697,2403.014160 1501.527222,2415.877197 
	C1425.338745,2428.375732 1348.594238,2433.806396 1271.472900,2431.834717 
	C1235.537476,2430.916016 1199.565918,2428.086914 1163.806763,2424.281250 
	C1085.430908,2415.939697 1008.641907,2399.499023 933.424927,2375.854248 
	C929.293274,2374.555664 925.181824,2373.193359 920.319458,2371.581787 
z"/>
<path fill="#101010" opacity="1.000000" stroke="none" 
	d="
M313.372498,654.094727 
	C313.600708,655.892761 313.117615,657.752991 312.287354,660.950073 
	C706.098328,660.950073 1099.133301,660.950073 1493.030762,660.950073 
	C1503.948853,645.704285 1517.385010,631.151062 1537.905762,625.902710 
	C1562.812134,619.532654 1585.620239,623.705627 1604.780273,641.607544 
	C1610.722900,647.159851 1615.446899,654.016357 1620.869629,660.897583 
	C1582.382568,661.404419 1543.754639,661.307068 1505.126953,661.149536 
	C1500.832886,661.132019 1496.540283,660.771484 1491.623169,660.540771 
	C1490.714355,661.875610 1489.448120,663.735413 1487.442261,665.943848 
	C1483.180908,665.525574 1479.688110,664.547668 1476.128174,664.061401 
	C1473.512329,663.704224 1470.808716,663.990356 1468.144165,663.990356 
	C1086.454834,663.990295 704.765381,663.995789 323.075989,663.926941 
	C318.303925,663.926086 313.067749,665.465759 307.702637,660.646790 
	C309.426422,658.390686 311.043793,656.273804 313.372498,654.094727 
z"/>
<path fill="#101010" opacity="1.000000" stroke="none" 
	d="
M1345.209473,774.944214 
	C1343.942505,775.916687 1342.057983,776.688171 1340.144653,776.768127 
	C1332.824829,777.073975 1325.495850,777.302856 1318.170288,777.303284 
	C927.701416,777.326904 537.232483,777.323303 146.763626,777.334167 
	C141.769775,777.334290 136.775940,777.484741 130.839508,777.632507 
	C131.229553,776.489563 132.412186,774.533203 133.926971,774.228577 
	C136.814484,773.647888 139.891510,773.984192 142.889862,773.984070 
	C540.805603,773.970886 938.721313,773.960754 1336.637085,773.971863 
	C1339.284302,773.971924 1341.931396,774.267822 1345.209473,774.944214 
z"/>
<path fill="#101010" opacity="1.000000" stroke="none" 
	d="
M70.183388,1085.265625 
	C74.261406,1084.273193 78.558121,1083.831299 82.854874,1083.830933 
	C453.039093,1083.799072 823.223328,1083.810181 1193.407593,1083.734619 
	C1200.355103,1083.733154 1207.302490,1082.732300 1215.135498,1082.232666 
	C1215.044312,1083.443115 1214.207397,1085.464844 1213.067627,1085.653198 
	C1206.876465,1086.675415 1200.610474,1087.878418 1194.370117,1087.880127 
	C823.486267,1087.981323 452.602386,1087.976440 81.718529,1087.890015 
	C77.946251,1087.889160 74.174240,1086.671753 70.183388,1085.265625 
z"/>
<path fill="#101010" opacity="1.000000" stroke="none" 
	d="
M1598.232910,1082.263062 
	C1616.161865,1082.381348 1634.405029,1083.701172 1652.648804,1083.709961 
	C1927.183228,1083.841797 2201.717529,1083.801147 2476.251953,1083.805298 
	C2480.249512,1083.805420 2484.246826,1083.862915 2489.139648,1084.200684 
	C2488.642334,1085.644165 2487.391602,1087.425171 2485.824707,1087.770752 
	C2483.280029,1088.331909 2480.528564,1087.968506 2477.864258,1087.968506 
	C2194.738525,1087.970825 1911.612671,1087.987549 1628.486816,1087.901978 
	C1618.308350,1087.898804 1608.035156,1087.440063 1598.232910,1082.263062 
z"/>
<path fill="#101010" opacity="1.000000" stroke="none" 
	d="
M2492.730469,815.480835 
	C2488.423340,805.347595 2484.605225,794.766968 2480.795898,784.183167 
	C2480.131348,782.336304 2479.505859,780.475464 2478.412109,777.324219 
	C2474.300049,777.324219 2470.083740,777.324219 2465.867188,777.324219 
	C2235.720459,777.324158 2005.573608,777.332703 1775.426880,777.281555 
	C1768.785522,777.280090 1762.144409,776.646362 1754.833496,775.852295 
	C1757.364014,774.919800 1760.564087,774.025513 1763.764404,774.024658 
	C1997.372925,773.964600 2230.981445,773.975342 2464.590088,773.980530 
	C2467.256104,773.980591 2469.933838,774.142273 2472.585693,773.949341 
	C2477.939453,773.559875 2481.204834,775.223022 2482.760010,780.989319 
	C2485.849854,792.444275 2489.691406,803.696472 2492.730469,815.480835 
z"/>
<path fill="#101010" opacity="1.000000" stroke="none" 
	d="
M2036.185913,658.065674 
	C2052.261230,661.092041 2068.851562,660.947449 2085.468262,660.923340 
	C2152.358887,660.826416 2219.249512,660.935547 2286.139404,660.726318 
	C2289.444580,660.715942 2294.282227,663.588867 2296.187012,656.929077 
	C2297.314941,656.906677 2299.614258,658.085571 2299.471924,658.692383 
	C2299.076660,660.380371 2297.995850,662.558289 2296.578125,663.199524 
	C2294.590088,664.098755 2292.053223,663.963318 2289.751221,663.964233 
	C2212.590088,663.994019 2135.428955,664.071655 2058.268555,663.851501 
	C2050.814453,663.830200 2043.036255,663.283813 2036.185913,658.065674 
z"/>
<path fill="#232323" opacity="1.000000" stroke="none" 
	d="
M1624.267090,662.509399 
	C1628.668457,661.265991 1633.494873,660.534119 1639.468750,659.628235 
	C1639.468750,655.546570 1639.468750,651.653198 1639.468750,647.759766 
	C1639.468384,583.552795 1639.462402,519.345825 1639.482666,455.138824 
	C1639.483765,451.489258 1639.698730,447.839722 1640.359985,443.664856 
	C1641.309326,446.742462 1642.061035,450.344971 1642.064941,453.948303 
	C1642.135376,519.894165 1642.123901,585.840149 1642.108521,651.786072 
	C1642.106201,661.937561 1642.057739,661.937561 1632.530640,665.311707 
	C1632.978760,667.151306 1633.437012,669.032349 1633.843994,671.667603 
	C1630.759277,669.288147 1627.725708,666.154480 1624.267090,662.509399 
z"/>
<path fill="#101010" opacity="1.000000" stroke="none" 
	d="
M922.774780,222.636932 
	C918.433472,224.863815 913.285950,226.917862 908.077271,228.803284 
	C889.192017,235.639420 870.286316,242.418991 850.658936,249.144440 
	C851.552856,247.607697 852.934631,245.456711 854.836426,244.790649 
	C876.503113,237.202454 898.247681,229.836288 919.982239,222.442688 
	C920.572998,222.241714 921.285034,222.397385 922.774780,222.636932 
z"/>
<path fill="#101010" opacity="1.000000" stroke="none" 
	d="
M1719.864502,234.219025 
	C1710.754150,231.904053 1701.426636,228.976776 1692.105347,226.030075 
	C1682.426025,222.970184 1672.752686,219.891525 1662.562500,216.318939 
	C1666.404785,213.003571 1670.298950,216.060776 1674.072998,217.200302 
	C1687.377808,221.217438 1700.536499,225.726562 1713.697388,230.205505 
	C1715.820679,230.928024 1717.672729,232.447205 1719.864502,234.219025 
z"/>
<path fill="#101010" opacity="1.000000" stroke="none" 
	d="
M1453.748535,171.881042 
	C1438.558716,171.152817 1423.034790,169.811295 1406.769165,168.183273 
	C1410.482422,167.269501 1415.035767,165.726578 1419.373169,166.192673 
	C1430.770386,167.417389 1442.073730,169.516785 1453.748535,171.881042 
z"/>
<path fill="#101010" opacity="1.000000" stroke="none" 
	d="
M1201.398926,167.342148 
	C1186.504150,169.632843 1171.032593,171.345322 1154.735840,172.827820 
	C1157.768066,171.234024 1161.534668,169.143494 1165.500488,168.648682 
	C1175.611938,167.387115 1185.808472,166.788452 1195.980347,166.055069 
	C1197.568970,165.940536 1199.206787,166.510498 1201.398926,167.342148 
z"/>
<path fill="#101010" opacity="1.000000" stroke="none" 
	d="
M1357.801025,164.520569 
	C1342.555054,164.936249 1327.057617,164.616318 1310.828003,163.971039 
	C1311.577393,163.078384 1313.055176,162.031250 1314.541382,162.019058 
	C1327.418091,161.913269 1340.297241,161.937363 1353.173340,162.095718 
	C1354.638794,162.113724 1356.091187,163.196106 1357.801025,164.520569 
z"/>
<path fill="#101010" opacity="1.000000" stroke="none" 
	d="
M1838.665527,508.782471 
	C1855.725220,505.112274 1872.510864,507.339935 1888.551025,517.032837 
	C1882.408691,515.766113 1875.996094,513.195068 1869.345703,512.178284 
	C1859.406616,510.658752 1849.300171,510.233307 1838.665527,508.782471 
z"/>
<path fill="#101010" opacity="1.000000" stroke="none" 
	d="
M1297.289307,163.098801 
	C1283.188599,164.329163 1268.479858,165.002670 1252.856689,165.440781 
	C1253.387085,164.149170 1254.827026,162.185730 1256.277100,162.178131 
	C1269.744141,162.107483 1283.213013,162.373550 1297.289307,163.098801 
z"/>
<path fill="#101010" opacity="1.000000" stroke="none" 
	d="
M1384.619263,934.800781 
	C1396.523193,928.478882 1409.467773,929.123108 1423.259521,931.659973 
	C1420.551514,932.690552 1417.138794,933.683655 1413.675415,933.912842 
	C1404.177246,934.541504 1394.657715,934.849304 1384.619263,934.800781 
z"/>
<path fill="#101010" opacity="1.000000" stroke="none" 
	d="
M1007.334900,198.993942 
	C998.459045,202.150711 989.075439,204.835007 979.684753,207.494522 
	C975.587402,208.654953 971.475708,209.764481 966.640991,210.739471 
	C967.383789,209.361496 968.683655,207.447403 970.355835,207.031921 
	C982.469788,204.021988 994.658936,201.314560 1007.334900,198.993942 
z"/>
<path fill="#101010" opacity="1.000000" stroke="none" 
	d="
M116.082230,816.150024 
	C113.263245,828.195007 109.829987,840.470825 105.914078,853.297974 
	C105.066307,853.326721 104.283157,852.679077 104.396706,852.300049 
	C107.991974,840.298035 108.782784,827.425537 116.082230,816.150024 
z"/>
<path fill="#101010" opacity="1.000000" stroke="none" 
	d="
M1115.367432,177.153961 
	C1103.748901,180.039459 1091.588379,182.390610 1078.670654,184.557312 
	C1082.767822,182.764847 1087.522095,180.645523 1092.500488,179.669312 
	C1099.858521,178.226471 1107.375977,177.596008 1115.367432,177.153961 
z"/>
<path fill="#101010" opacity="1.000000" stroke="none" 
	d="
M1801.915039,266.655823 
	C1789.224487,262.118469 1776.397461,256.916229 1763.059814,251.193787 
	C1768.187500,252.308319 1774.001465,253.506104 1779.422241,255.683029 
	C1787.027710,258.737396 1794.340576,262.519867 1801.915039,266.655823 
z"/>
<path fill="#101010" opacity="1.000000" stroke="none" 
	d="
M1386.840942,762.713013 
	C1377.182373,769.661743 1365.384766,772.571228 1352.667480,774.794067 
	C1352.855347,773.735168 1353.665039,772.476135 1354.764526,772.125305 
	C1365.156738,768.808960 1375.598511,765.647400 1386.840942,762.713013 
z"/>
<path fill="#101010" opacity="1.000000" stroke="none" 
	d="
M1041.439209,191.297684 
	C1032.437256,194.181671 1022.922668,196.526154 1012.659424,198.712189 
	C1013.062378,197.491287 1014.073242,195.748611 1015.388184,195.476822 
	C1023.864014,193.724762 1032.406250,192.294235 1041.439209,191.297684 
z"/>
<path fill="#101010" opacity="1.000000" stroke="none" 
	d="
M75.772614,986.248413 
	C75.064713,995.465393 73.777977,1005.012512 72.174728,1015.261108 
	C71.245804,1013.833130 69.816811,1011.558411 70.164940,1009.599609 
	C71.538261,1001.872070 73.469521,994.243652 75.772614,986.248413 
z"/>
<path fill="#101010" opacity="1.000000" stroke="none" 
	d="
M89.899841,914.200928 
	C88.596634,923.536133 86.699455,933.153076 84.388649,943.381592 
	C80.146263,938.272339 84.752907,932.863281 84.862915,927.262329 
	C84.947128,922.974976 87.725723,918.740540 89.899841,914.200928 
z"/>
<path fill="#101010" opacity="1.000000" stroke="none" 
	d="
M128.008179,780.158203 
	C125.391670,790.294678 122.175110,800.672241 118.393417,811.500854 
	C117.435379,811.458984 116.602669,810.812500 116.713341,810.495300 
	C120.221855,800.443604 123.821938,790.423828 128.008179,780.158203 
z"/>
<path fill="#101010" opacity="1.000000" stroke="none" 
	d="
M2178.000000,521.213623 
	C2171.325439,515.774353 2164.614990,509.645752 2157.678223,502.872864 
	C2159.251465,502.806610 2161.580811,502.860718 2162.758545,504.052826 
	C2168.007080,509.365631 2172.926270,515.003784 2178.000000,521.213623 
z"/>
<path fill="#101010" opacity="1.000000" stroke="none" 
	d="
M1757.872314,248.262054 
	C1748.368896,245.539749 1738.661499,242.191376 1728.515137,238.281693 
	C1728.586914,237.344971 1729.264648,236.534668 1729.584106,236.657379 
	C1738.967407,240.259964 1748.314819,243.955383 1757.872314,248.262054 
z"/>
<path fill="#101010" opacity="1.000000" stroke="none" 
	d="
M1233.371094,165.286682 
	C1225.892700,166.598160 1217.827393,167.336060 1208.866699,167.843353 
	C1209.320068,166.438248 1210.647339,164.284393 1212.021118,164.254257 
	C1218.935425,164.102600 1225.861816,164.505142 1233.371094,165.286682 
z"/>
<path fill="#101010" opacity="1.000000" stroke="none" 
	d="
M1749.820557,774.133118 
	C1741.704346,772.074280 1733.330078,769.399780 1724.527222,766.175415 
	C1725.266113,765.348999 1726.635010,764.532776 1727.568970,764.881348 
	C1734.946899,767.634766 1742.241943,770.610229 1749.820557,774.133118 
z"/>
<path fill="#101010" opacity="1.000000" stroke="none" 
	d="
M1531.795654,183.974182 
	C1523.833252,183.272736 1515.583252,181.965286 1506.675293,180.296143 
	C1508.706421,179.410110 1511.558228,178.045731 1514.051636,178.529480 
	C1519.960815,179.675919 1525.699951,181.699280 1531.795654,183.974182 
z"/>
<path fill="#101010" opacity="1.000000" stroke="none" 
	d="
M844.732361,250.587860 
	C836.151428,254.935532 826.745850,259.049927 816.633423,263.093506 
	C819.992432,260.577606 823.870544,257.710541 828.172852,255.797348 
	C833.225464,253.550537 838.646484,252.132233 844.732361,250.587860 
z"/>
<path fill="#101010" opacity="1.000000" stroke="none" 
	d="
M1738.184326,468.169708 
	C1744.072021,473.186340 1749.911987,478.927216 1755.900635,485.324341 
	C1747.698730,482.779968 1742.419678,476.359070 1738.184326,468.169708 
z"/>
<path fill="#101010" opacity="1.000000" stroke="none" 
	d="
M1397.821533,166.707123 
	C1390.537354,167.107635 1383.035522,166.763336 1374.788818,166.126526 
	C1381.912720,163.054764 1389.767578,162.794266 1397.821533,166.707123 
z"/>
<path fill="#101010" opacity="1.000000" stroke="none" 
	d="
M103.903587,858.183350 
	C102.613037,865.566162 100.726372,873.214294 98.409912,881.428467 
	C97.537743,880.260925 96.336296,878.294189 96.784790,876.834351 
	C98.692680,870.623962 101.089302,864.563721 103.903587,858.183350 
z"/>
<path fill="#101010" opacity="1.000000" stroke="none" 
	d="
M1641.812012,209.844574 
	C1634.442261,208.549911 1626.803223,206.673004 1618.599854,204.331329 
	C1619.471436,203.378525 1621.136963,202.157684 1622.304565,202.524017 
	C1628.784058,204.557037 1635.142578,206.975677 1641.812012,209.844574 
z"/>
<path fill="#101010" opacity="1.000000" stroke="none" 
	d="
M1587.776611,195.781219 
	C1581.784058,195.183212 1575.489136,194.010147 1568.598389,192.412994 
	C1573.158813,190.387009 1580.544556,191.607376 1587.776611,195.781219 
z"/>
<path fill="#101010" opacity="1.000000" stroke="none" 
	d="
M445.659851,506.135712 
	C442.013123,510.658539 437.651825,515.161316 432.642578,519.825073 
	C433.890991,513.102478 438.986176,509.205719 445.659851,506.135712 
z"/>
<path fill="#101010" opacity="1.000000" stroke="none" 
	d="
M1792.201294,524.213745 
	C1794.331909,524.771301 1796.435303,526.088684 1798.631714,527.464539 
	C1800.757446,525.629089 1802.664062,523.982910 1805.297119,522.200134 
	C1801.462769,531.871460 1797.754761,532.650635 1792.201294,524.213745 
z"/>
<path fill="#101010" opacity="1.000000" stroke="none" 
	d="
M758.834534,288.677521 
	C754.213928,291.814697 748.801147,294.694977 742.679077,297.600891 
	C745.397400,291.188568 751.775818,289.902222 758.834534,288.677521 
z"/>
<path fill="#101010" opacity="1.000000" stroke="none" 
	d="
M1865.920898,296.769989 
	C1860.487671,294.919464 1854.931519,292.401215 1848.917725,289.339355 
	C1855.589966,288.026703 1860.723877,291.993164 1865.920898,296.769989 
z"/>
<path fill="#101010" opacity="1.000000" stroke="none" 
	d="
M1435.122314,723.982971 
	C1432.387939,728.013733 1428.962524,732.094238 1424.889771,736.380859 
	C1424.575562,729.916138 1429.745239,727.170654 1435.122314,723.982971 
z"/>
<path fill="#101010" opacity="1.000000" stroke="none" 
	d="
M1278.593506,1033.939209 
	C1281.432251,1029.952271 1284.976807,1025.948730 1289.168091,1021.749023 
	C1289.206543,1028.138672 1284.254028,1031.031494 1278.593506,1033.939209 
z"/>
<path fill="#101010" opacity="1.000000" stroke="none" 
	d="
M945.550049,215.414185 
	C940.482178,217.908127 934.987427,219.891998 928.735718,221.803833 
	C928.626953,220.656052 929.072021,218.876236 929.956848,218.621033 
	C934.953918,217.179703 940.056580,216.104248 945.550049,215.414185 
z"/>
<path fill="#101010" opacity="1.000000" stroke="none" 
	d="
M1942.037842,338.833801 
	C1937.308228,336.885162 1932.467041,334.251495 1927.263672,331.020630 
	C1933.070190,330.741547 1938.288696,332.907990 1942.037842,338.833801 
z"/>
<path fill="#101010" opacity="1.000000" stroke="none" 
	d="
M510.280457,448.310638 
	C507.763214,451.467957 504.501984,454.527161 500.586060,457.697418 
	C501.102234,452.577087 504.363068,449.437592 510.280457,448.310638 
z"/>
<path fill="#101010" opacity="1.000000" stroke="none" 
	d="
M1713.967773,759.098755 
	C1710.593750,757.049438 1707.168823,754.305420 1703.544434,750.915771 
	C1709.111084,750.067261 1711.522461,754.224609 1713.967773,759.098755 
z"/>
<path fill="#232323" opacity="1.000000" stroke="none" 
	d="
M1662.527832,438.889893 
	C1666.293945,436.476349 1670.486572,434.531799 1675.386963,432.564270 
	C1673.521973,438.297455 1667.948975,438.270599 1662.527832,438.889893 
z"/>
<path fill="#101010" opacity="1.000000" stroke="none" 
	d="
M1974.221680,610.050415 
	C1977.403320,612.459595 1980.524536,615.596619 1983.782471,619.381897 
	C1978.651978,619.071228 1975.703613,615.666199 1974.221680,610.050415 
z"/>
<path fill="#101010" opacity="1.000000" stroke="none" 
	d="
M1574.068604,1072.807251 
	C1577.703491,1073.803223 1581.418457,1075.466797 1585.536865,1077.672729 
	C1580.427124,1080.572021 1577.423340,1076.686646 1574.068604,1072.807251 
z"/>
<path fill="#101010" opacity="1.000000" stroke="none" 
	d="
M66.358780,1058.154053 
	C66.905815,1061.269287 66.809128,1064.606079 66.525703,1068.850220 
	C66.338974,1069.757568 65.522507,1069.905396 65.522507,1069.905396 
	C63.064648,1066.020020 62.972591,1062.174194 66.358780,1058.154053 
z"/>
<path fill="#101010" opacity="1.000000" stroke="none" 
	d="
M2260.126953,610.933044 
	C2257.521240,608.845215 2254.918457,606.049072 2252.179932,602.618103 
	C2256.940430,602.571228 2259.433838,605.516235 2260.126953,610.933044 
z"/>
<path fill="#FDFDFD" opacity="1.000000" stroke="none" 
	d="
M65.724136,1070.737793 
	C65.522507,1069.905396 66.338974,1069.757568 66.743233,1069.664551 
	C72.931892,1073.210938 68.049187,1077.658936 68.046265,1082.479492 
	C67.141823,1082.217041 65.585045,1081.257935 65.510246,1080.194580 
	C65.309723,1077.343506 65.743774,1074.447998 65.724136,1070.737793 
z"/>
<path fill="#101010" opacity="1.000000" stroke="none" 
	d="
M2248.162598,596.749268 
	C2245.574463,594.703064 2242.972168,591.962769 2240.241699,588.590210 
	C2244.895508,588.569702 2247.360596,591.480530 2248.162598,596.749268 
z"/>
<path fill="#101010" opacity="1.000000" stroke="none" 
	d="
M1909.823730,537.307190 
	C1912.465942,539.314819 1915.121582,542.017456 1917.892090,545.358704 
	C1913.155884,545.506775 1910.683350,542.585449 1909.823730,537.307190 
z"/>
<path fill="#232323" opacity="1.000000" stroke="none" 
	d="
M1688.907104,424.129242 
	C1689.592041,422.569336 1691.021240,421.067505 1693.524658,418.436646 
	C1695.329834,420.923492 1696.650146,422.742432 1698.117920,425.217529 
	C1695.393921,425.311554 1692.522583,424.749420 1688.907104,424.129242 
z"/>
<path fill="#101010" opacity="1.000000" stroke="none" 
	d="
M1928.194580,558.128601 
	C1930.716187,559.856812 1933.184448,562.304993 1935.763428,565.399658 
	C1931.523804,565.551575 1929.092163,562.995544 1928.194580,558.128601 
z"/>
<path fill="#101010" opacity="1.000000" stroke="none" 
	d="
M1487.885010,176.535034 
	C1485.153931,176.887070 1482.249390,176.598038 1478.737549,175.911072 
	C1481.420044,173.226395 1484.626465,173.032425 1487.885010,176.535034 
z"/>
<path fill="#101010" opacity="1.000000" stroke="none" 
	d="
M1699.779419,745.931519 
	C1697.208862,744.219849 1694.694458,741.776245 1692.047974,738.682739 
	C1696.420532,738.361145 1698.891724,740.936584 1699.779419,745.931519 
z"/>
<path fill="#101010" opacity="1.000000" stroke="none" 
	d="
M2121.981445,469.191833 
	C2119.262939,467.791138 2116.491943,465.674316 2113.478271,462.934357 
	C2117.960938,461.788971 2120.293701,464.640625 2121.981445,469.191833 
z"/>
<path fill="#101010" opacity="1.000000" stroke="none" 
	d="
M1683.782471,727.911987 
	C1681.244751,726.190125 1678.758301,723.740845 1676.132568,720.647034 
	C1680.433350,720.402649 1682.903320,722.953430 1683.782471,727.911987 
z"/>
<path fill="#101010" opacity="1.000000" stroke="none" 
	d="
M70.814110,1020.110107 
	C71.309593,1022.660461 71.132492,1025.358643 70.753235,1028.903564 
	C70.551094,1029.750488 69.811821,1029.954346 69.811821,1029.954346 
	C67.165184,1026.628418 66.941284,1023.384949 70.814110,1020.110107 
z"/>
<path fill="#101010" opacity="1.000000" stroke="none" 
	d="
M1471.874512,174.390839 
	C1469.154663,174.765823 1466.241577,174.518509 1462.746460,173.836334 
	C1465.425049,171.235596 1468.606689,171.113342 1471.874512,174.390839 
z"/>
<path fill="#101010" opacity="1.000000" stroke="none" 
	d="
M1129.407715,175.094330 
	C1127.054565,176.259872 1124.231689,176.931976 1120.677734,177.448090 
	C1121.694946,172.222885 1125.504395,174.040115 1129.407715,175.094330 
z"/>
<path fill="#101010" opacity="1.000000" stroke="none" 
	d="
M1944.186279,576.148560 
	C1946.714722,577.869568 1949.189941,580.309875 1951.770508,583.397888 
	C1947.514404,583.573547 1945.100708,581.000671 1944.186279,576.148560 
z"/>
<path fill="#101010" opacity="1.000000" stroke="none" 
	d="
M2141.986328,487.188599 
	C2139.299561,485.767365 2136.561279,483.637360 2133.617188,480.875854 
	C2138.033447,479.887817 2140.347656,482.687225 2141.986328,487.188599 
z"/>
<path fill="#101010" opacity="1.000000" stroke="none" 
	d="
M1542.193848,1044.143311 
	C1544.705078,1045.870239 1547.168213,1048.315552 1549.747681,1051.405273 
	C1545.530029,1051.544800 1543.093384,1049.002563 1542.193848,1044.143311 
z"/>
<path fill="#101010" opacity="1.000000" stroke="none" 
	d="
M68.488190,1038.114990 
	C68.996643,1040.621582 68.862320,1043.303955 68.544922,1046.870728 
	C68.361839,1047.755249 67.597961,1047.916016 67.597961,1047.916016 
	C65.204735,1044.643921 65.041565,1041.429077 68.488190,1038.114990 
z"/>
<path fill="#101010" opacity="1.000000" stroke="none" 
	d="
M1524.240723,1023.956726 
	C1526.798828,1025.713989 1529.280640,1028.205566 1531.873779,1031.351318 
	C1527.514160,1031.560547 1525.015381,1029.006836 1524.240723,1023.956726 
z"/>
<path fill="#101010" opacity="1.000000" stroke="none" 
	d="
M1478.181396,972.207153 
	C1480.691040,973.912598 1483.167236,976.333801 1485.767090,979.397583 
	C1481.564697,979.566284 1479.132935,977.031616 1478.181396,972.207153 
z"/>
<path fill="#101010" opacity="1.000000" stroke="none" 
	d="
M1841.899902,284.938416 
	C1838.623413,284.286316 1835.219238,282.919281 1831.437012,280.960510 
	C1835.388550,279.545197 1839.064209,280.539612 1841.899902,284.938416 
z"/>
<path fill="#101010" opacity="1.000000" stroke="none" 
	d="
M1815.894409,272.800293 
	C1812.605225,272.194946 1809.172119,270.881561 1805.336670,268.987762 
	C1809.266113,267.503723 1812.938721,268.534424 1815.894409,272.800293 
z"/>
<path fill="#101010" opacity="1.000000" stroke="none" 
	d="
M530.893066,431.859467 
	C529.471558,433.822815 527.349670,435.784637 524.599670,437.834991 
	C524.140381,433.947906 526.468811,432.187378 530.893066,431.859467 
z"/>
<path fill="#232323" opacity="1.000000" stroke="none" 
	d="
M1641.796509,443.236115 
	C1643.706421,442.297791 1646.276855,441.715973 1649.512207,441.379150 
	C1647.603760,442.280243 1645.030518,442.936432 1641.796509,443.236115 
z"/>
<path fill="#101010" opacity="1.000000" stroke="none" 
	d="
M1781.842041,513.310547 
	C1783.993652,514.551086 1786.168579,516.514709 1788.487305,519.108765 
	C1784.415527,520.161743 1782.378174,518.001648 1781.842041,513.310547 
z"/>
<path fill="#101010" opacity="1.000000" stroke="none" 
	d="
M1813.577148,517.680176 
	C1815.476807,515.955688 1818.103271,514.363281 1821.395996,512.787842 
	C1820.945923,516.751099 1817.638672,517.302917 1813.577148,517.680176 
z"/>
<path fill="#101010" opacity="1.000000" stroke="none" 
	d="
M1553.916504,188.627502 
	C1551.782959,188.921432 1549.510986,188.601578 1546.698608,187.844788 
	C1548.881470,185.303833 1551.449097,185.159271 1553.916504,188.627502 
z"/>
<path fill="#101010" opacity="1.000000" stroke="none" 
	d="
M549.061768,417.869385 
	C547.582581,419.821045 545.396301,421.758759 542.572693,423.757446 
	C542.213440,419.826630 544.608032,418.113190 549.061768,417.869385 
z"/>
<path fill="#101010" opacity="1.000000" stroke="none" 
	d="
M343.229584,616.032471 
	C342.277191,618.347412 340.640747,620.702881 338.411438,623.252441 
	C337.770416,619.947754 338.745789,617.105103 343.229584,616.032471 
z"/>
<path fill="#101010" opacity="1.000000" stroke="none" 
	d="
M1501.910889,178.834930 
	C1499.751587,179.205658 1497.464722,178.930588 1494.610840,178.246063 
	C1496.750000,175.183563 1499.341309,175.047836 1501.910889,178.834930 
z"/>
<path fill="#101010" opacity="1.000000" stroke="none" 
	d="
M660.410034,342.339447 
	C658.576294,344.283325 655.975403,346.101166 652.687073,347.956848 
	C652.582764,343.470276 656.081970,342.801025 660.410034,342.339447 
z"/>
<path fill="#101010" opacity="1.000000" stroke="none" 
	d="
M673.983521,334.215515 
	C672.211182,336.060699 669.715942,337.828552 666.549805,339.614136 
	C666.652100,335.533295 669.995056,334.887604 673.983521,334.215515 
z"/>
<path fill="#101010" opacity="1.000000" stroke="none" 
	d="
M1971.911011,357.187012 
	C1969.262329,356.444550 1966.516479,354.984650 1963.433594,352.938232 
	C1966.002319,353.724335 1968.908081,355.096924 1971.911011,357.187012 
z"/>
<path fill="#101010" opacity="1.000000" stroke="none" 
	d="
M78.228668,972.114075 
	C78.607155,974.201233 78.415688,976.480164 77.772171,979.285645 
	C75.282227,977.213135 75.307755,974.707031 78.228668,972.114075 
z"/>
<path fill="#101010" opacity="1.000000" stroke="none" 
	d="
M698.350952,320.314362 
	C696.491882,322.099792 693.896301,323.772034 690.629028,325.456940 
	C690.855164,321.308746 694.254883,320.784058 698.350952,320.314362 
z"/>
<path fill="#101010" opacity="1.000000" stroke="none" 
	d="
M1145.436768,173.035782 
	C1143.646729,174.079163 1141.444824,174.661957 1138.579346,175.004776 
	C1139.350220,170.997742 1142.182617,171.770523 1145.436768,173.035782 
z"/>
<path fill="#101010" opacity="1.000000" stroke="none" 
	d="
M1827.884521,278.487976 
	C1825.174805,278.029968 1822.288208,276.885223 1818.985352,275.203064 
	C1821.615234,275.710815 1824.661499,276.756042 1827.884521,278.487976 
z"/>
<path fill="#101010" opacity="1.000000" stroke="none" 
	d="
M788.768005,274.548920 
	C786.773743,276.292938 784.037109,277.823303 780.622803,279.324982 
	C781.124390,275.176208 784.469910,274.584534 788.768005,274.548920 
z"/>
<path fill="#101010" opacity="1.000000" stroke="none" 
	d="
M82.812149,948.084473 
	C83.113358,950.231750 82.778755,952.504150 82.029236,955.337341 
	C79.201889,953.145264 79.074272,950.559387 82.812149,948.084473 
z"/>
<path fill="#101010" opacity="1.000000" stroke="none" 
	d="
M1369.995850,941.799438 
	C1371.788208,940.068970 1374.276855,938.426453 1377.416870,936.839233 
	C1375.609497,938.558777 1373.150757,940.223083 1369.995850,941.799438 
z"/>
<path fill="#101010" opacity="1.000000" stroke="none" 
	d="
M1436.115234,935.641479 
	C1438.763184,936.125488 1441.595093,937.271179 1444.783936,938.987061 
	C1442.193726,938.472534 1439.246460,937.387817 1436.115234,935.641479 
z"/>
<path fill="#101010" opacity="1.000000" stroke="none" 
	d="
M810.858765,264.656250 
	C808.830383,266.367157 806.062073,267.823425 802.620117,269.299805 
	C803.176392,265.197815 806.476501,264.515472 810.858765,264.656250 
z"/>
<path fill="#101010" opacity="1.000000" stroke="none" 
	d="
M2049.961914,411.034241 
	C2047.561890,410.177521 2045.100220,408.631653 2042.410645,406.494110 
	C2045.708740,405.727081 2048.682129,406.511505 2049.961914,411.034241 
z"/>
<path fill="#101010" opacity="1.000000" stroke="none" 
	d="
M2233.797363,579.876831 
	C2231.919189,578.822754 2230.089844,577.045288 2228.135742,574.631775 
	C2231.390869,574.091064 2233.386963,575.753052 2233.797363,579.876831 
z"/>
<path fill="#101010" opacity="1.000000" stroke="none" 
	d="
M1237.493652,1073.620850 
	C1238.771606,1071.830933 1240.791138,1070.178467 1243.462524,1068.432129 
	C1243.677979,1071.796997 1241.819824,1073.713867 1237.493652,1073.620850 
z"/>
<path fill="#101010" opacity="1.000000" stroke="none" 
	d="
M1560.024536,1062.814453 
	C1562.045654,1063.563599 1564.124878,1065.035767 1566.460327,1067.107910 
	C1563.315063,1068.211182 1561.104858,1066.819336 1560.024536,1062.814453 
z"/>
<path fill="#101010" opacity="1.000000" stroke="none" 
	d="
M2203.969238,547.332520 
	C2202.079346,546.430908 2200.166992,544.838867 2198.125977,542.624146 
	C2199.980225,543.548340 2201.963867,545.095215 2203.969238,547.332520 
z"/>
<path fill="#101010" opacity="1.000000" stroke="none" 
	d="
M2211.831055,555.767700 
	C2209.913086,554.763000 2208.031006,553.035889 2206.033691,550.670288 
	C2209.286133,550.059814 2211.331299,551.657349 2211.831055,555.767700 
z"/>
<path fill="#101010" opacity="1.000000" stroke="none" 
	d="
M473.768066,480.173798 
	C472.767731,482.087219 471.042450,483.967377 468.682953,485.985413 
	C468.051758,482.741821 469.629395,480.674835 473.768066,480.173798 
z"/>
<path fill="#101010" opacity="1.000000" stroke="none" 
	d="
M491.827240,464.186310 
	C490.791595,466.083344 489.035522,467.935852 486.638489,469.890930 
	C486.090912,466.637421 487.728271,464.629456 491.827240,464.186310 
z"/>
<path fill="#101010" opacity="1.000000" stroke="none" 
	d="
M2105.949463,455.291687 
	C2103.934570,454.505890 2101.874268,452.996735 2099.598877,450.871460 
	C2102.791260,449.827148 2104.957520,451.275848 2105.949463,455.291687 
z"/>
<path fill="#101010" opacity="1.000000" stroke="none" 
	d="
M365.289978,590.054749 
	C364.517273,592.084961 363.016937,594.163330 360.899811,596.465332 
	C359.819855,593.265747 361.228821,591.059082 365.289978,590.054749 
z"/>
<path fill="#101010" opacity="1.000000" stroke="none" 
	d="
M1960.195557,594.150452 
	C1962.107788,595.176941 1963.973633,596.931763 1965.965088,599.325439 
	C1962.686279,599.932800 1960.631592,598.324341 1960.195557,594.150452 
z"/>
<path fill="#101010" opacity="1.000000" stroke="none" 
	d="
M1462.166748,954.245605 
	C1464.073853,955.250183 1465.949585,956.974609 1467.940674,959.338745 
	C1464.707397,959.931396 1462.668579,958.337524 1462.166748,954.245605 
z"/>
<path fill="#101010" opacity="1.000000" stroke="none" 
	d="
M2083.971680,437.153442 
	C2081.905762,436.442413 2079.767578,435.005859 2077.393555,432.953644 
	C2080.559570,431.797577 2082.825195,433.130646 2083.971680,437.153442 
z"/>
<path fill="#101010" opacity="1.000000" stroke="none" 
	d="
M80.534424,960.052734 
	C80.918182,961.615234 80.722282,963.292786 80.072533,965.432800 
	C77.311668,963.844177 77.464226,961.937439 80.534424,960.052734 
z"/>
<path fill="#101010" opacity="1.000000" stroke="none" 
	d="
M1605.956299,200.505066 
	C1604.408203,200.797668 1602.750244,200.525726 1600.634521,199.798141 
	C1602.303589,197.295746 1604.192261,197.506744 1605.956299,200.505066 
z"/>
<path fill="#101010" opacity="1.000000" stroke="none" 
	d="
M94.622749,894.046265 
	C94.944832,895.603943 94.683113,897.265015 93.986053,899.403442 
	C91.323029,897.766785 91.466896,895.854797 94.622749,894.046265 
z"/>
<path fill="#101010" opacity="1.000000" stroke="none" 
	d="
M1563.945190,190.783691 
	C1562.373901,191.131363 1560.702637,190.876724 1558.549072,190.186783 
	C1560.181152,187.366470 1562.109863,187.473358 1563.945190,190.783691 
z"/>
<path fill="#101010" opacity="1.000000" stroke="none" 
	d="
M1071.503784,185.085083 
	C1070.294312,186.125488 1068.728394,186.718689 1066.542725,187.114105 
	C1066.702393,183.950928 1068.600342,183.550232 1071.503784,185.085083 
z"/>
<path fill="#101010" opacity="1.000000" stroke="none" 
	d="
M1828.458984,510.746613 
	C1829.658203,509.652313 1831.234375,509.020081 1833.432861,508.562897 
	C1833.458008,511.975525 1831.566650,512.478699 1828.458984,510.746613 
z"/>
<path fill="#101010" opacity="1.000000" stroke="none" 
	d="
M1541.926270,186.206421 
	C1540.416138,186.592850 1538.751831,186.443787 1536.626587,185.843994 
	C1538.034424,185.485809 1539.903198,185.578369 1541.926270,186.206421 
z"/>
<path fill="#101010" opacity="1.000000" stroke="none" 
	d="
M1061.487061,187.060440 
	C1060.297852,188.114258 1058.740479,188.721146 1056.555908,189.178040 
	C1056.593994,185.934387 1058.518677,185.547821 1061.487061,187.060440 
z"/>
<path fill="#101010" opacity="1.000000" stroke="none" 
	d="
M798.241699,270.246796 
	C797.106750,271.504211 795.214111,272.626312 792.647766,273.711060 
	C792.379272,270.272339 794.764160,269.932983 798.241699,270.246796 
z"/>
<path fill="#101010" opacity="1.000000" stroke="none" 
	d="
M681.272766,329.938354 
	C680.374451,331.201141 678.791809,332.419159 676.590027,333.639832 
	C677.510071,332.392853 679.049194,331.143250 681.272766,329.938354 
z"/>
<path fill="#101010" opacity="1.000000" stroke="none" 
	d="
M2007.896729,381.019287 
	C2006.533325,380.993103 2005.044189,380.263367 2003.256348,378.967163 
	C2004.562134,379.039032 2006.166626,379.677338 2007.896729,381.019287 
z"/>
<path fill="#101010" opacity="1.000000" stroke="none" 
	d="
M1512.138916,1010.328064 
	C1513.355347,1010.689087 1514.563843,1011.734680 1515.893555,1013.387329 
	C1514.720215,1013.000427 1513.425659,1012.006531 1512.138916,1010.328064 
z"/>
<path fill="#101010" opacity="1.000000" stroke="none" 
	d="
M622.101685,366.234436 
	C621.598572,367.410950 620.407288,368.503265 618.593933,369.627808 
	C619.119080,368.490051 620.266296,367.320160 622.101685,366.234436 
z"/>
<path fill="#101010" opacity="1.000000" stroke="none" 
	d="
M1326.500854,983.892944 
	C1326.763794,982.617249 1327.715820,981.309753 1329.276367,979.859741 
	C1328.986694,981.098511 1328.088257,982.479858 1326.500854,983.892944 
z"/>
<path fill="#101010" opacity="1.000000" stroke="none" 
	d="
M1989.916992,368.877563 
	C1988.614258,368.835876 1987.192017,368.129791 1985.521729,366.859741 
	C1986.781616,366.934906 1988.289551,367.574036 1989.916992,368.877563 
z"/>
<path fill="#101010" opacity="1.000000" stroke="none" 
	d="
M616.227478,370.277222 
	C615.698059,371.448273 614.467224,372.528900 612.605713,373.654663 
	C613.158752,372.528809 614.342407,371.357819 616.227478,370.277222 
z"/>
<path fill="#101010" opacity="1.000000" stroke="none" 
	d="
M1995.917725,372.935364 
	C1994.603516,372.881531 1993.175049,372.160980 1991.520996,370.864471 
	C1992.798096,370.948547 1994.300781,371.608582 1995.917725,372.935364 
z"/>
<path fill="#101010" opacity="1.000000" stroke="none" 
	d="
M610.226746,374.282898 
	C609.705017,375.473297 608.478333,376.576019 606.615234,377.711975 
	C607.159851,376.561859 608.340820,375.378540 610.226746,374.282898 
z"/>
<path fill="#101010" opacity="1.000000" stroke="none" 
	d="
M2001.913818,376.991516 
	C2000.586914,376.934753 1999.146729,376.198669 1997.460449,374.889709 
	C1998.743164,374.981934 2000.271851,375.647095 2001.913818,376.991516 
z"/>
<path fill="#101010" opacity="1.000000" stroke="none" 
	d="
M1364.061523,945.803101 
	C1364.534180,944.652283 1365.672607,943.558167 1367.422852,942.446899 
	C1366.932129,943.573120 1365.829712,944.716492 1364.061523,945.803101 
z"/>
<path fill="#101010" opacity="1.000000" stroke="none" 
	d="
M604.356140,378.316223 
	C603.802124,379.540802 602.523560,380.660065 600.592346,381.804626 
	C601.170288,380.623596 602.400940,379.417267 604.356140,378.316223 
z"/>
<path fill="#101010" opacity="1.000000" stroke="none" 
	d="
M634.484253,358.373230 
	C633.900574,359.568512 632.592346,360.644470 630.631592,361.731995 
	C631.239258,360.580322 632.499451,359.417114 634.484253,358.373230 
z"/>
<path fill="#101010" opacity="1.000000" stroke="none" 
	d="
M1428.018066,933.246582 
	C1429.047974,932.852295 1430.146851,933.000671 1431.617920,933.592224 
	C1430.550049,936.158752 1429.259277,935.913391 1428.018066,933.246582 
z"/>
<path fill="#101010" opacity="1.000000" stroke="none" 
	d="
M1595.957764,197.977112 
	C1595.012329,198.351059 1593.942871,198.277039 1592.530273,197.757721 
	C1593.402466,197.384674 1594.618164,197.456909 1595.957764,197.977112 
z"/>
<path fill="#101010" opacity="1.000000" stroke="none" 
	d="
M2013.896606,385.091248 
	C2012.514038,385.058289 2011.011353,384.316162 2009.233521,382.989288 
	C2010.564331,383.063721 2012.170532,383.722900 2013.896606,385.091248 
z"/>
<path fill="#101010" opacity="1.000000" stroke="none" 
	d="
M92.361763,904.021118 
	C92.788353,905.025513 92.712158,906.125671 92.174240,907.573120 
	C91.761337,906.652527 91.810165,905.384705 92.361763,904.021118 
z"/>
<path fill="#101010" opacity="1.000000" stroke="none" 
	d="
M589.902100,388.181763 
	C589.446533,389.356750 588.320435,390.474335 586.583008,391.625854 
	C587.058289,390.481293 588.144897,389.302826 589.902100,388.181763 
z"/>
<path fill="#101010" opacity="1.000000" stroke="none" 
	d="
M96.586838,886.013733 
	C96.956787,887.013184 96.801987,888.089417 96.239532,889.560181 
	C95.908623,888.666687 95.985359,887.378601 96.586838,886.013733 
z"/>
<path fill="#101010" opacity="1.000000" stroke="none" 
	d="
M1917.888672,324.700562 
	C1916.530762,324.762512 1915.012695,324.153168 1913.206421,322.982605 
	C1914.521606,322.957367 1916.125244,323.493317 1917.888672,324.700562 
z"/>
<path fill="#101010" opacity="1.000000" stroke="none" 
	d="
M1049.684814,189.418518 
	C1048.983276,190.381363 1048.007080,190.897461 1046.482178,191.252716 
	C1047.092285,190.385193 1048.251221,189.678467 1049.684814,189.418518 
z"/>
<path fill="#101010" opacity="1.000000" stroke="none" 
	d="
M1881.849854,304.983521 
	C1880.416748,305.138306 1878.811768,304.549255 1876.795776,303.442993 
	C1878.149170,303.363770 1879.913574,303.801727 1881.849854,304.983521 
z"/>
<path fill="#101010" opacity="1.000000" stroke="none" 
	d="
M720.412292,308.303040 
	C719.779907,309.351776 718.477295,310.277527 716.554688,311.182831 
	C717.203857,310.168274 718.472961,309.174164 720.412292,308.303040 
z"/>
<path fill="#101010" opacity="1.000000" stroke="none" 
	d="
M1895.884399,312.590912 
	C1894.556030,312.663177 1893.055054,312.081757 1891.260010,310.950287 
	C1892.547852,310.912567 1894.129761,311.424866 1895.884399,312.590912 
z"/>
<path fill="#101010" opacity="1.000000" stroke="none" 
	d="
M1590.021729,1079.855713 
	C1590.992065,1079.498047 1592.067383,1079.609375 1593.487549,1080.171021 
	C1592.597168,1080.522461 1591.361938,1080.423462 1590.021729,1079.855713 
z"/>
<path fill="#101010" opacity="1.000000" stroke="none" 
	d="
M708.781982,314.573181 
	C708.104553,315.793640 706.683411,316.805664 704.594482,317.803558 
	C705.297241,316.647858 706.667725,315.506317 708.781982,314.573181 
z"/>
<path fill="#101010" opacity="1.000000" stroke="none" 
	d="
M1903.863037,316.899719 
	C1902.450439,317.004333 1900.871460,316.386963 1898.920532,315.230591 
	C1900.264648,315.186951 1901.980469,315.682312 1903.863037,316.899719 
z"/>
<path fill="#101010" opacity="1.000000" stroke="none" 
	d="
M1568.098389,1069.227295 
	C1569.432861,1069.211304 1570.909546,1069.867310 1572.673828,1071.074463 
	C1571.387695,1071.050049 1569.814087,1070.474609 1568.098389,1069.227295 
z"/>
<path fill="#101010" opacity="1.000000" stroke="none" 
	d="
M1983.907471,364.837036 
	C1982.594971,364.819061 1981.150879,364.133362 1979.432617,362.891388 
	C1980.697632,362.946503 1982.236694,363.557892 1983.907471,364.837036 
z"/>
<path fill="#101010" opacity="1.000000" stroke="none" 
	d="
M1951.896851,344.843170 
	C1950.543945,344.856628 1949.050781,344.185730 1947.266602,342.954559 
	C1948.569214,342.982452 1950.162842,343.570618 1951.896851,344.843170 
z"/>
<path fill="#FDFDFD" opacity="1.000000" stroke="none" 
	d="
M67.810120,1048.587891 
	C67.597961,1047.916016 68.361839,1047.755249 68.741013,1047.662842 
	C71.203224,1048.708984 72.768524,1049.918701 69.099503,1051.885986 
	C68.340736,1051.089478 68.181503,1050.174683 67.810120,1048.587891 
z"/>
<path fill="#101010" opacity="1.000000" stroke="none" 
	d="
M650.442017,348.347839 
	C649.867981,349.538391 648.570251,350.610718 646.626282,351.720917 
	C647.226074,350.582397 648.472168,349.405975 650.442017,348.347839 
z"/>
<path fill="#101010" opacity="1.000000" stroke="none" 
	d="
M644.362427,352.297821 
	C643.786621,353.458710 642.508789,354.503540 640.597412,355.549347 
	C641.196045,354.427490 642.428284,353.304626 644.362427,352.297821 
z"/>
<path fill="#FDFDFD" opacity="1.000000" stroke="none" 
	d="
M69.991249,1030.621582 
	C69.811821,1029.954346 70.551094,1029.750488 70.931755,1029.704834 
	C73.374084,1030.866211 74.501038,1032.154297 71.080193,1033.895264 
	C70.383652,1033.099609 70.277168,1032.194336 69.991249,1030.621582 
z"/>
<path fill="#101010" opacity="1.000000" stroke="none" 
	d="
M1613.989380,202.615204 
	C1612.962158,202.999084 1611.863159,202.854233 1610.410156,202.253006 
	C1611.343140,201.893250 1612.630493,201.989868 1613.989380,202.615204 
z"/>
<path fill="#101010" opacity="1.000000" stroke="none" 
	d="
M1977.891846,360.991943 
	C1976.511475,360.988586 1974.998535,360.282806 1973.196289,359.002258 
	C1974.524536,359.048187 1976.141724,359.668854 1977.891846,360.991943 
z"/>
<path fill="#101010" opacity="1.000000" stroke="none" 
	d="
M553.951050,414.210571 
	C553.479248,415.413788 552.318176,416.560669 550.527710,417.748169 
	C551.019409,416.577301 552.140625,415.365784 553.951050,414.210571 
z"/>
<path fill="#232323" opacity="1.000000" stroke="none" 
	d="
M1649.830566,689.744751 
	C1648.554688,689.387756 1647.325684,688.335632 1646.004395,686.661621 
	C1647.233887,687.043152 1648.555664,688.046387 1649.830566,689.744751 
z"/>
<path fill="#101010" opacity="1.000000" stroke="none" 
	d="
M1477.351929,676.073242 
	C1477.144409,677.359863 1476.252197,678.705688 1474.759766,680.219482 
	C1474.995605,678.969177 1475.831421,677.550781 1477.351929,676.073242 
z"/>
<path fill="#101010" opacity="1.000000" stroke="none" 
	d="
M562.002686,408.226685 
	C561.535034,409.414001 560.379822,410.541107 558.602295,411.715302 
	C559.091675,410.563751 560.203430,409.365112 562.002686,408.226685 
z"/>
<path fill="#101010" opacity="1.000000" stroke="none" 
	d="
M1657.994629,214.524323 
	C1656.980957,214.865906 1655.894897,214.693283 1654.455200,214.072144 
	C1655.375122,213.752457 1656.648804,213.881287 1657.994629,214.524323 
z"/>
<path fill="#101010" opacity="1.000000" stroke="none" 
	d="
M2028.006836,655.209717 
	C2029.048584,654.919678 2030.147949,655.159790 2031.572144,655.889404 
	C2030.619385,656.165833 2029.342041,655.952820 2028.006836,655.209717 
z"/>
<path fill="#101010" opacity="1.000000" stroke="none" 
	d="
M2291.819824,649.848511 
	C2290.606445,649.420715 2289.436035,648.305603 2288.208984,646.567810 
	C2289.388916,647.017151 2290.625977,648.089172 2291.819824,649.848511 
z"/>
<path fill="#101010" opacity="1.000000" stroke="none" 
	d="
M321.064026,644.020081 
	C320.949127,645.305237 320.166901,646.702515 318.806458,648.323853 
	C318.951111,647.076050 319.673889,645.604126 321.064026,644.020081 
z"/>
<path fill="#101010" opacity="1.000000" stroke="none" 
	d="
M2283.835449,639.782349 
	C2282.646484,639.359375 2281.485107,638.260193 2280.259277,636.545715 
	C2281.417480,636.989014 2282.640137,638.047607 2283.835449,639.782349 
z"/>
<path fill="#101010" opacity="1.000000" stroke="none" 
	d="
M2275.835205,629.765137 
	C2274.619629,629.367920 2273.426270,628.286926 2272.153320,626.589355 
	C2273.334717,627.009033 2274.596191,628.045227 2275.835205,629.765137 
z"/>
<path fill="#101010" opacity="1.000000" stroke="none" 
	d="
M1463.341675,692.064087 
	C1463.124878,693.344666 1462.231079,694.682129 1460.732422,696.166260 
	C1460.973267,694.915649 1461.818970,693.518372 1463.341675,692.064087 
z"/>
<path fill="#101010" opacity="1.000000" stroke="none" 
	d="
M2057.976074,417.079071 
	C2056.676025,416.970490 2055.267090,416.189301 2053.641113,414.823303 
	C2054.905273,414.961151 2056.385986,415.683777 2057.976074,417.079071 
z"/>
<path fill="#101010" opacity="1.000000" stroke="none" 
	d="
M2265.873047,617.659790 
	C2264.675293,617.282654 2263.488037,616.230408 2262.196289,614.572083 
	C2263.355957,614.972229 2264.619873,615.978394 2265.873047,617.659790 
z"/>
<path fill="#101010" opacity="1.000000" stroke="none" 
	d="
M2065.926270,423.028015 
	C2064.625732,422.933899 2063.226318,422.170074 2061.608887,420.829529 
	C2062.869629,420.954651 2064.348389,421.656494 2065.926270,423.028015 
z"/>
<path fill="#101010" opacity="1.000000" stroke="none" 
	d="
M353.287659,604.071106 
	C353.131439,605.381592 352.281860,606.770325 350.836090,608.369019 
	C351.024750,607.102478 351.809540,605.625854 353.287659,604.071106 
z"/>
<path fill="#101010" opacity="1.000000" stroke="none" 
	d="
M2073.954102,429.194763 
	C2072.660645,429.050629 2071.276367,428.224335 2069.668945,426.814575 
	C2070.918213,426.991608 2072.391113,427.752136 2073.954102,429.194763 
z"/>
<path fill="#101010" opacity="1.000000" stroke="none" 
	d="
M517.954651,442.218201 
	C517.517151,443.448273 516.377502,444.624390 514.610107,445.876709 
	C515.072449,444.690063 516.162476,443.427155 517.954651,442.218201 
z"/>
<path fill="#101010" opacity="1.000000" stroke="none" 
	d="
M377.363037,576.079834 
	C377.161102,577.371399 376.269928,578.722717 374.780029,580.255310 
	C375.012115,579.004272 375.842926,577.571899 377.363037,576.079834 
z"/>
<path fill="#101010" opacity="1.000000" stroke="none" 
	d="
M1890.074951,519.062866 
	C1891.380859,519.128784 1892.794189,519.857300 1894.420166,521.162354 
	C1893.149292,521.067749 1891.665771,520.396606 1890.074951,519.062866 
z"/>
<path fill="#101010" opacity="1.000000" stroke="none" 
	d="
M1402.152222,754.260498 
	C1401.636108,755.426208 1400.431641,756.512329 1398.598633,757.614380 
	C1399.134766,756.480591 1400.299194,755.330750 1402.152222,754.260498 
z"/>
<path fill="#101010" opacity="1.000000" stroke="none" 
	d="
M2495.024414,823.521057 
	C2494.074951,822.877686 2493.506836,821.940430 2493.096191,820.458374 
	C2493.971191,821.018188 2494.688477,822.122681 2495.024414,823.521057 
z"/>
<path fill="#101010" opacity="1.000000" stroke="none" 
	d="
M401.362122,550.060364 
	C401.113403,551.312988 400.194214,552.613403 398.676453,554.053833 
	C398.949127,552.831909 399.820404,551.470093 401.362122,550.060364 
z"/>
<path fill="#101010" opacity="1.000000" stroke="none" 
	d="
M584.292603,392.298340 
	C583.768860,393.533997 582.517212,394.672729 580.619751,395.870239 
	C581.170776,394.686493 582.367737,393.443939 584.292603,392.298340 
z"/>
<path fill="#101010" opacity="1.000000" stroke="none" 
	d="
M2027.908691,395.106689 
	C2026.570557,395.031250 2025.124268,394.261719 2023.426880,392.910400 
	C2024.717407,393.023285 2026.259033,393.717957 2027.908691,395.106689 
z"/>
<path fill="#101010" opacity="1.000000" stroke="none" 
	d="
M961.607422,211.191360 
	C960.926453,212.147217 959.970154,212.688782 958.466919,213.048019 
	C959.057312,212.169479 960.194763,211.473282 961.607422,211.191360 
z"/>
<path fill="#101010" opacity="1.000000" stroke="none" 
	d="
M1649.978271,212.223206 
	C1649.000122,212.593933 1647.919067,212.486252 1646.490479,211.924805 
	C1647.386963,211.562271 1648.631226,211.653549 1649.978271,212.223206 
z"/>
<path fill="#101010" opacity="1.000000" stroke="none" 
	d="
M953.638916,213.306046 
	C952.968811,214.307434 952.014893,214.871399 950.498901,215.293762 
	C951.076294,214.390991 952.215698,213.629807 953.638916,213.306046 
z"/>
<path fill="#101010" opacity="1.000000" stroke="none" 
	d="
M1719.971313,762.846680 
	C1718.615479,762.868652 1717.085571,762.207153 1715.250000,760.976318 
	C1716.562012,760.992371 1718.179565,761.577759 1719.971313,762.846680 
z"/>
<path fill="#101010" opacity="1.000000" stroke="none" 
	d="
M2021.932129,390.881592 
	C2020.657471,390.809082 2019.277344,390.083466 2017.669434,388.795288 
	C2018.903320,388.897980 2020.364990,389.563202 2021.932129,390.881592 
z"/>
<path fill="#101010" opacity="1.000000" stroke="none" 
	d="
M2033.890625,399.271423 
	C2032.492554,399.203735 2030.985474,398.406433 2029.198486,397.014771 
	C2030.539673,397.127533 2032.160645,397.834656 2033.890625,399.271423 
z"/>
<path fill="#101010" opacity="1.000000" stroke="none" 
	d="
M1408.105225,750.243225 
	C1407.605225,751.434570 1406.418091,752.547485 1404.601685,753.659668 
	C1405.120972,752.494202 1406.269409,751.329468 1408.105225,750.243225 
z"/>
<path fill="#101010" opacity="1.000000" stroke="none" 
	d="
M1417.852295,742.199463 
	C1417.454468,743.445496 1416.358398,744.659912 1414.634033,745.944580 
	C1415.055054,744.732544 1416.104614,743.450195 1417.852295,742.199463 
z"/>
<path fill="#101010" opacity="1.000000" stroke="none" 
	d="
M575.945984,398.191132 
	C575.468262,399.329193 574.321472,400.401733 572.570251,401.531067 
	C573.069519,400.433777 574.173218,399.279694 575.945984,398.191132 
z"/>
<path fill="#101010" opacity="1.000000" stroke="none" 
	d="
M570.233887,402.280945 
	C569.709229,403.500153 568.468811,404.627991 566.584717,405.795380 
	C567.133362,404.619812 568.325745,403.404694 570.233887,402.280945 
z"/>
<path fill="#101010" opacity="1.000000" stroke="none" 
	d="
M2041.957764,405.132751 
	C2040.616211,405.054474 2039.149902,404.278198 2037.417969,402.918701 
	C2038.712646,403.035248 2040.272827,403.735016 2041.957764,405.132751 
z"/>
<path fill="#101010" opacity="1.000000" stroke="none" 
	d="
M1449.243164,708.034790 
	C1449.048096,709.304321 1448.182373,710.640320 1446.721680,712.142822 
	C1446.941895,710.906555 1447.757202,709.503845 1449.243164,708.034790 
z"/>
<path fill="#101010" opacity="1.000000" stroke="none" 
	d="
M1665.851562,707.693665 
	C1664.601196,707.347595 1663.362061,706.308838 1662.003662,704.657715 
	C1663.210693,705.030579 1664.536621,706.015808 1665.851562,707.693665 
z"/>
</svg>