<svg width="85" height="85" viewBox="0 0 70 85" fill="none" xmlns="http://www.w3.org/2000/svg">
<path d="M53.7137 1.21369V17.4103C53.7134 17.8303 53.6049 18.2432 53.3985 18.609C53.1922 18.9749 52.8951 19.2814 52.5358 19.499L52.4348 19.5579L48.6486 21.7392L26.6087 34.4146L23.9331 35.9522C23.8878 35.9721 23.8448 35.9968 23.8048 36.0258C23.6382 36.1376 23.5016 36.2886 23.4072 36.4656C23.3128 36.6426 23.2635 36.8401 23.2635 37.0407C23.2635 37.2413 23.3128 37.4389 23.4072 37.6159C23.5016 37.7929 23.6382 37.9439 23.8048 38.0557L23.9057 38.1145L26.9242 39.8646L37.2311 45.7964L37.4141 45.9036C37.5755 46.0153 37.7074 46.1644 37.7985 46.3383C37.8896 46.5121 37.9372 46.7055 37.9372 46.9017C37.9372 47.098 37.8896 47.2913 37.7985 47.4652C37.7074 47.639 37.5755 47.7881 37.4141 47.8998L37.2353 48.0008L18.4031 58.8504L18.2979 58.9114C17.9415 59.1069 17.5413 59.209 17.1347 59.208C16.7707 59.2067 16.4116 59.1248 16.083 58.9682L15.9778 58.9135L15.818 58.8188L4.89684 52.54L1.281 50.4597C1.24735 50.4429 1.21369 50.4218 1.17794 50.4008C0.828705 50.1877 0.53922 49.8896 0.336554 49.5342C0.116447 49.1661 0.00014617 48.7452 2.15552e-06 48.3163V31.4151C-0.000549743 31.0009 0.104888 30.5934 0.306283 30.2315C0.507679 29.8696 0.798332 29.5652 1.15059 29.3474C1.15867 29.3397 1.16789 29.3333 1.17794 29.3284C1.21769 29.3031 1.25916 29.2807 1.30204 29.2611L1.31887 29.2485L4.89473 27.1913L16.9622 20.2499L31.5055 11.8845L51.808 0.210347C51.84 0.187936 51.8737 0.168235 51.909 0.15145C52.0871 0.0520614 52.2877 -7.66194e-05 52.4916 1.81348e-06C52.6521 -0.000274654 52.8111 0.0310623 52.9595 0.0922236C53.1079 0.153385 53.2427 0.243173 53.3564 0.35646C53.4701 0.469748 53.5603 0.604317 53.622 0.752484C53.6837 0.900651 53.7156 1.05951 53.7159 1.22L53.7137 1.21369Z" fill="#ffffff"/>
<path d="M70.6757 35.8215V52.7227C70.6752 53.1421 70.5666 53.5544 70.3602 53.9195C70.1539 54.2847 69.8568 54.5904 69.4977 54.8072L69.3947 54.8661L65.7788 56.9485L61.2101 59.5778L53.7176 63.8878L39.1702 72.2532L18.8718 83.9274C18.8394 83.949 18.8057 83.9687 18.7709 83.9863C18.5919 84.0852 18.3906 84.1366 18.1861 84.1356C18.0256 84.1359 17.8667 84.1046 17.7183 84.0434C17.5699 83.9823 17.435 83.8925 17.3213 83.7792C17.2077 83.6659 17.1174 83.5313 17.0557 83.3832C16.9941 83.235 16.9622 83.0761 16.9619 82.9156V66.7191C16.9615 66.2995 17.0698 65.8869 17.2763 65.5216C17.4827 65.1563 17.7802 64.8507 18.1398 64.6345C18.1882 64.603 18.2408 64.5756 18.2892 64.5504L22.0333 62.3944L44.067 49.719L46.7068 48.2003L46.8772 48.1035L46.894 48.093C47.0556 47.9807 47.1876 47.831 47.2788 47.6567C47.37 47.4823 47.4177 47.2885 47.4178 47.0918C47.4161 46.8917 47.366 46.695 47.2719 46.5185C47.1778 46.342 47.0424 46.1908 46.8772 46.0779C46.8382 46.0519 46.7974 46.0287 46.7552 46.0085L43.7515 44.271L33.4446 38.3372L33.2468 38.2215C33.0892 38.1095 32.9608 37.9614 32.8721 37.7896C32.7834 37.6178 32.7371 37.4273 32.7371 37.2339C32.7371 37.0406 32.7834 36.8501 32.8721 36.6783C32.9608 36.5064 33.0892 36.3584 33.2468 36.2464L33.4572 36.1286C33.467 36.1217 33.4776 36.1161 33.4887 36.1117L52.2768 25.3L52.424 25.2159C52.7743 25.0328 53.1636 24.9373 53.5588 24.9373C53.954 24.9373 54.3434 25.0328 54.6936 25.2159L54.8535 25.3084L65.8041 31.6061L69.4199 33.6886C69.4549 33.7058 69.4886 33.7255 69.5209 33.7475C69.8703 33.9594 70.1599 34.2569 70.3622 34.612C70.5804 34.9814 70.6945 35.403 70.6925 35.832L70.6757 35.8215Z" fill="#ffffff"/>
</svg>
