<svg width="244" height="85" viewBox="0 0 244 85" fill="none" xmlns="http://www.w3.org/2000/svg">
<path d="M94.6774 54.5424C101.526 54.5424 106.352 50.8593 106.352 44.8308C106.352 38.2491 100.929 36.5453 95.8343 34.9446C90.9627 33.4721 89.7196 32.4204 89.7196 30.4348C89.7196 28.5942 91.2845 27.2123 93.9496 27.2123C97.2142 27.2123 98.96 28.9161 100.109 31.3561L105.441 28.2703C103.281 23.75 99.2272 21.0344 93.9412 21.0344C88.4259 21.0344 83.3692 24.5325 83.3692 30.6072C83.3692 36.7304 88.1504 38.8107 93.0683 40.2284C97.8494 41.6083 100.01 42.5296 100.01 44.9233C100.01 46.7176 98.6761 48.3288 94.8604 48.3288C90.8638 48.3288 88.6089 46.3957 87.4604 43.4025L82.0356 46.5787C83.7815 51.3662 88.1041 54.5424 94.6774 54.5424Z" fill="#ffffff"/>
<path d="M121.291 30.2393C117.926 30.2393 115.501 31.4824 113.845 33.6048V30.885H107.907V63.1036H113.837V51.1833C115.492 53.2994 117.928 54.5488 121.283 54.5488C127.442 54.5488 132.499 49.2545 132.499 42.3972C132.499 35.54 127.45 30.2393 121.291 30.2393ZM120.189 48.8822C116.557 48.8822 113.845 46.257 113.845 42.3909C113.845 38.5248 116.557 35.9017 120.189 35.9017C123.866 35.9017 126.577 38.5248 126.577 42.3909C126.577 46.257 123.866 48.8822 120.189 48.8822Z" fill="#ffffff"/>
<path d="M147.171 30.2392C144.091 30.2392 141.702 31.3898 140.322 33.4617V21.6824H134.392V53.8988H140.322V41.4716C140.322 37.4751 142.482 35.7629 145.37 35.7629C148.035 35.7629 149.92 37.3741 149.92 40.5041V53.8988H155.866V39.7679C155.866 33.6552 152.042 30.2392 147.171 30.2392Z" fill="#ffffff"/>
<path d="M163.634 44.8309H180.963C181.113 44.0262 181.19 43.2095 181.194 42.3909C181.194 35.6262 176.367 30.2393 169.564 30.2393C162.347 30.2393 157.429 35.5336 157.429 42.3909C157.429 49.2482 162.301 54.5425 170.023 54.5425C174.44 54.5425 177.883 52.7483 180.043 49.6184L175.264 46.8565C174.253 48.1901 172.414 49.1577 170.115 49.1577C166.989 49.1577 164.461 47.8683 163.634 44.8309ZM163.542 40.2286C164.232 37.2837 166.392 35.5799 169.564 35.5799C172.046 35.5799 174.528 36.9135 175.264 40.2286H163.542Z" fill="#ffffff"/>
<path d="M188.963 34.8437V30.885H183.034V53.8988H188.963V42.8978C188.963 38.0598 192.872 36.6842 195.951 37.0523V30.4243C193.055 30.4243 190.152 31.7137 188.963 34.8437Z" fill="#ffffff"/>
<path d="M208.48 54.5425C215.236 54.5425 220.661 49.2482 220.661 42.3909C220.661 35.5336 215.236 30.2393 208.48 30.2393C201.724 30.2393 196.345 35.5336 196.345 42.3909C196.345 49.2482 201.722 54.5425 208.48 54.5425ZM208.48 48.7433C204.986 48.7433 202.275 46.1203 202.275 42.3909C202.275 38.6615 204.986 36.0385 208.48 36.0385C212.018 36.0385 214.731 38.6636 214.731 42.3909C214.731 46.1182 212.029 48.7433 208.48 48.7433Z" fill="#ffffff"/>
<path d="M235.313 30.2393C232.233 30.2393 229.844 31.3898 228.462 33.4617V30.885H222.532V53.8989H228.462V41.4717C228.462 37.4751 230.624 35.7629 233.51 35.7629C236.177 35.7629 238.062 37.3742 238.062 40.5041V53.8989H244V39.7679C244 33.6553 240.184 30.2393 235.313 30.2393Z" fill="#ffffff"/>
<path d="M53.7137 1.21369V17.4103C53.7134 17.8303 53.6049 18.2432 53.3985 18.609C53.1922 18.9749 52.8951 19.2814 52.5358 19.499L52.4348 19.5579L48.6486 21.7392L26.6087 34.4146L23.9331 35.9522C23.8878 35.9721 23.8448 35.9968 23.8048 36.0258C23.6382 36.1376 23.5016 36.2886 23.4072 36.4656C23.3128 36.6426 23.2635 36.8401 23.2635 37.0407C23.2635 37.2413 23.3128 37.4389 23.4072 37.6159C23.5016 37.7929 23.6382 37.9439 23.8048 38.0557L23.9057 38.1145L26.9242 39.8646L37.2311 45.7964L37.4141 45.9036C37.5755 46.0153 37.7074 46.1644 37.7985 46.3383C37.8896 46.5121 37.9372 46.7055 37.9372 46.9017C37.9372 47.098 37.8896 47.2913 37.7985 47.4652C37.7074 47.639 37.5755 47.7881 37.4141 47.8998L37.2353 48.0008L18.4031 58.8504L18.2979 58.9114C17.9415 59.1069 17.5413 59.209 17.1347 59.208C16.7707 59.2067 16.4116 59.1248 16.083 58.9682L15.9778 58.9135L15.818 58.8188L4.89684 52.54L1.281 50.4597C1.24735 50.4429 1.21369 50.4218 1.17794 50.4008C0.828705 50.1877 0.53922 49.8896 0.336554 49.5342C0.116447 49.1661 0.00014617 48.7452 2.15552e-06 48.3163V31.4151C-0.000549743 31.0009 0.104888 30.5934 0.306283 30.2315C0.507679 29.8696 0.798332 29.5652 1.15059 29.3474C1.15867 29.3397 1.16789 29.3333 1.17794 29.3284C1.21769 29.3031 1.25916 29.2807 1.30204 29.2611L1.31887 29.2485L4.89473 27.1913L16.9622 20.2499L31.5055 11.8845L51.808 0.210347C51.84 0.187936 51.8737 0.168235 51.909 0.15145C52.0871 0.0520614 52.2877 -7.66194e-05 52.4916 1.81348e-06C52.6521 -0.000274654 52.8111 0.0310623 52.9595 0.0922236C53.1079 0.153385 53.2427 0.243173 53.3564 0.35646C53.4701 0.469748 53.5603 0.604317 53.622 0.752484C53.6837 0.900651 53.7156 1.05951 53.7159 1.22L53.7137 1.21369Z" fill="#ffffff"/>
<path d="M70.6757 35.8215V52.7227C70.6752 53.1421 70.5666 53.5544 70.3602 53.9195C70.1539 54.2847 69.8568 54.5904 69.4977 54.8072L69.3947 54.8661L65.7788 56.9485L61.2101 59.5778L53.7176 63.8878L39.1702 72.2532L18.8718 83.9274C18.8394 83.949 18.8057 83.9687 18.7709 83.9863C18.5919 84.0852 18.3906 84.1366 18.1861 84.1356C18.0256 84.1359 17.8667 84.1046 17.7183 84.0434C17.5699 83.9823 17.435 83.8925 17.3213 83.7792C17.2077 83.6659 17.1174 83.5313 17.0557 83.3832C16.9941 83.235 16.9622 83.0761 16.9619 82.9156V66.7191C16.9615 66.2995 17.0698 65.8869 17.2763 65.5216C17.4827 65.1563 17.7802 64.8507 18.1398 64.6345C18.1882 64.603 18.2408 64.5756 18.2892 64.5504L22.0333 62.3944L44.067 49.719L46.7068 48.2003L46.8772 48.1035L46.894 48.093C47.0556 47.9807 47.1876 47.831 47.2788 47.6567C47.37 47.4823 47.4177 47.2885 47.4178 47.0918C47.4161 46.8917 47.366 46.695 47.2719 46.5185C47.1778 46.342 47.0424 46.1908 46.8772 46.0779C46.8382 46.0519 46.7974 46.0287 46.7552 46.0085L43.7515 44.271L33.4446 38.3372L33.2468 38.2215C33.0892 38.1095 32.9608 37.9614 32.8721 37.7896C32.7834 37.6178 32.7371 37.4273 32.7371 37.2339C32.7371 37.0406 32.7834 36.8501 32.8721 36.6783C32.9608 36.5064 33.0892 36.3584 33.2468 36.2464L33.4572 36.1286C33.467 36.1217 33.4776 36.1161 33.4887 36.1117L52.2768 25.3L52.424 25.2159C52.7743 25.0328 53.1636 24.9373 53.5588 24.9373C53.954 24.9373 54.3434 25.0328 54.6936 25.2159L54.8535 25.3084L65.8041 31.6061L69.4199 33.6886C69.4549 33.7058 69.4886 33.7255 69.5209 33.7475C69.8703 33.9594 70.1599 34.2569 70.3622 34.612C70.5804 34.9814 70.6945 35.403 70.6925 35.832L70.6757 35.8215Z" fill="#ffffff"/>
</svg>
